<svg width="120" height="114" viewBox="0 0 120 114" fill="none" xmlns="http://www.w3.org/2000/svg">
<rect width="120" height="114" fill="white"/>
<path d="M59.9999 87.3486V74.4915H31.7142V87.3486" fill="#006781" fill-opacity="0.2"/>
<path d="M26.5714 87.3486H65.1428" stroke="#006781" stroke-width="5.14286" stroke-linecap="round" stroke-linejoin="round"/>
<path d="M59.9999 87.3486V74.4915H31.7142V87.3486" stroke="#006781" stroke-width="5.14286" stroke-linecap="round" stroke-linejoin="round"/>
<path d="M64.0459 24.1539L45.6086 42.5912C43.6002 44.5996 43.6002 47.8559 45.6086 49.8643L53.7545 58.0102C55.7629 60.0186 59.0192 60.0186 61.0276 58.0102L79.4647 39.5729C81.4735 37.5644 81.4735 34.3082 79.4647 32.2998L71.319 24.1539C69.3106 22.1455 66.0543 22.1455 64.0459 24.1539Z" fill="#006781" fill-opacity="0.2"/>
<path d="M64.0459 24.1538L45.6086 42.5911C43.6002 44.5995 43.6002 47.8557 45.6086 49.8642L53.7545 58.0101C55.7629 60.0185 59.0192 60.0185 61.0276 58.0101L79.4647 39.5728C81.4735 37.5643 81.4735 34.3081 79.4647 32.2996L71.319 24.1538C69.3106 22.1454 66.0543 22.1454 64.0459 24.1538Z" stroke="#006781" stroke-width="5.14286" stroke-linecap="round" stroke-linejoin="round"/>
<path d="M70.2858 48.7771L93.4286 71.9199" stroke="#006781" stroke-width="5.14286" stroke-linecap="round" stroke-linejoin="round"/>
</svg>
