<svg width="120" height="114" viewBox="0 0 120 114" fill="none" xmlns="http://www.w3.org/2000/svg">
<rect width="120" height="114" fill="white"/>
<g clip-path="url(#clip0_16_237)">
<path d="M50.4478 88.4286L52.8355 69.3265H67.1644L69.5522 88.4286H83.8788L86.2666 69.3265H91.0407C92.3594 69.3265 93.4286 68.2575 93.4286 66.9388V62.1632C93.4286 52.9321 85.9447 45.449 76.7138 45.449H43.2863C34.0552 45.449 26.5714 52.9321 26.5714 62.1632V66.9388C26.5714 68.2575 27.6404 69.3265 28.9592 69.3265H33.7335L36.1213 88.4286H50.4478Z" fill="#006781" fill-opacity="0.2"/>
<path d="M43.2857 38.2857C47.9012 38.2857 51.6429 34.5441 51.6429 29.9286C51.6429 25.313 47.9012 21.5714 43.2857 21.5714C38.6702 21.5714 34.9286 25.313 34.9286 29.9286C34.9286 34.5441 38.6702 38.2857 43.2857 38.2857Z" fill="#006781" fill-opacity="0.2"/>
<path d="M76.7143 38.2857C81.33 38.2857 85.0715 34.5441 85.0715 29.9286C85.0715 25.313 81.33 21.5714 76.7143 21.5714C72.0988 21.5714 68.3572 25.313 68.3572 29.9286C68.3572 34.5441 72.0988 38.2857 76.7143 38.2857Z" fill="#006781" fill-opacity="0.2"/>
<path d="M43.2857 38.2857C47.9012 38.2857 51.6429 34.5441 51.6429 29.9286C51.6429 25.313 47.9012 21.5714 43.2857 21.5714C38.6702 21.5714 34.9286 25.313 34.9286 29.9286C34.9286 34.5441 38.6702 38.2857 43.2857 38.2857Z" stroke="#006781" stroke-width="5.14286" stroke-linecap="round" stroke-linejoin="round"/>
<path d="M76.7143 38.2857C81.33 38.2857 85.0715 34.5441 85.0715 29.9286C85.0715 25.313 81.33 21.5714 76.7143 21.5714C72.0988 21.5714 68.3572 25.313 68.3572 29.9286C68.3572 34.5441 72.0988 38.2857 76.7143 38.2857Z" stroke="#006781" stroke-width="5.14286" stroke-linecap="round" stroke-linejoin="round"/>
<path d="M52.8355 69.3265L50.4478 88.4286H36.1213L33.7335 69.3265H28.9592C27.6404 69.3265 26.5714 68.2575 26.5714 66.9388V62.1632C26.5714 52.9321 34.0552 45.449 43.2863 45.449H76.7138C85.9447 45.449 93.4286 52.9321 93.4286 62.1632V66.9388C93.4286 68.2575 92.3594 69.3265 91.0407 69.3265H86.2666L83.8788 88.4286H69.5522L67.1644 69.3265" stroke="#006781" stroke-width="5.14286" stroke-linecap="round" stroke-linejoin="round"/>
</g>
<defs>
<clipPath id="clip0_16_237">
<rect width="72" height="72" fill="white" transform="translate(24 19)"/>
</clipPath>
</defs>
</svg>
