<svg width="120" height="114" viewBox="0 0 120 114" fill="none" xmlns="http://www.w3.org/2000/svg">
<rect width="120" height="114" fill="white"/>
<path d="M27.6658 73.1095L32.5462 66.7413L29.7923 59.9258C28.8082 57.4904 28.3024 54.8882 28.3024 52.2614V37.7005C28.3024 34.922 30.2681 32.5318 32.9942 31.9953C36.1671 31.3709 39.2398 33.4551 39.8329 36.634L41.7131 46.7106L48.2013 36.1443C50.3393 32.6433 54.8961 31.5143 58.4214 33.6119C61.9111 35.6885 63.0966 40.1538 61.143 43.6755C63.3558 40.4224 67.7432 39.4231 71.161 41.4568C74.632 43.5222 75.8235 47.9509 73.9137 51.4638L81.3418 38.5064C83.0759 35.4969 86.9182 34.4583 89.9319 36.1842C92.9173 37.8936 93.9793 41.6812 92.3187 44.6937L77.8405 70.9552C75.4347 75.3189 71.5267 78.6613 66.8424 80.361L61.5658 82.2757L57.4912 87.5013L27.6658 73.1095Z" fill="#006781" fill-opacity="0.2"/>
<path d="M27.6658 73.1095L32.5462 66.7413L29.7923 59.9258C28.8082 57.4904 28.3024 54.8882 28.3024 52.2614V37.7005C28.3024 34.922 30.2681 32.5318 32.9942 31.9953C36.1671 31.3709 39.2398 33.4551 39.8329 36.634L41.7131 46.7106L45.5157 40.541" stroke="#006781" stroke-width="5.14286" stroke-linecap="round" stroke-linejoin="round"/>
<path d="M70.7148 56.7788L73.7429 51.7618C75.8894 48.2053 74.731 43.5811 71.1611 41.4568C67.6359 39.3591 63.079 40.4882 60.9409 43.9891L57.8866 48.9902C55.7273 52.5259 56.8421 57.1427 60.377 59.3035C63.9269 61.4735 68.5648 60.3409 70.7148 56.7788Z" stroke="#006781" stroke-width="5.14286" stroke-linecap="round" stroke-linejoin="round"/>
<path d="M57.9752 48.9339L61.0033 43.917C63.15 40.3604 61.9914 35.7362 58.4215 33.6119C54.8962 31.5143 50.3394 32.6433 48.2013 36.1443L45.147 41.1453C42.9877 44.6811 44.1025 49.2979 47.6374 51.4587C51.1873 53.6287 55.8252 52.496 57.9752 48.9339Z" stroke="#006781" stroke-width="5.14286" stroke-linecap="round" stroke-linejoin="round"/>
<path d="M57.4913 87.5014L61.5659 82.2757L66.8425 80.361C71.5269 78.6613 75.4347 75.319 77.8405 70.9553L92.3187 44.6937C93.9793 41.6813 92.9173 37.8936 89.9319 36.1842C86.9182 34.4584 83.076 35.497 81.3418 38.5065L72.7366 53.4422" stroke="#006781" stroke-width="5.14286" stroke-linecap="round" stroke-linejoin="round"/>
</svg>
