<svg width="120" height="114" viewBox="0 0 120 114" fill="none" xmlns="http://www.w3.org/2000/svg">
<rect width="120" height="114" fill="white"/>
<path d="M60 42.1428C65.6807 42.1428 70.2857 37.5378 70.2857 31.8571C70.2857 26.1765 65.6807 21.5714 60 21.5714C54.3194 21.5714 49.7143 26.1765 49.7143 31.8571C49.7143 37.5378 54.3194 42.1428 60 42.1428Z" fill="#006781" fill-opacity="0.2"/>
<path d="M82.0114 67.0343C82.9778 66.1166 83.7471 65.0119 84.2733 63.7874C84.7989 62.5629 85.0704 61.2442 85.0704 59.9115C85.0704 58.5788 84.7989 57.2601 84.2733 56.0356C83.7471 54.8111 82.9778 53.7063 82.0114 52.7886C80.0335 50.9112 77.4101 49.8645 74.6829 49.8645C71.9556 49.8645 69.3324 50.9112 67.3543 52.7886L60 60.1429L52.6457 52.7886C50.6676 50.9112 48.0444 49.8645 45.3171 49.8645C42.5899 49.8645 39.9667 50.9112 37.9886 52.7886C37.0222 53.7063 36.2527 54.8111 35.7268 56.0356C35.201 57.2601 34.9298 58.5788 34.9298 59.9115C34.9298 61.2442 35.201 62.5629 35.7268 63.7874C36.2527 65.0119 37.0222 66.1166 37.9886 67.0343L60 88.4286L82.0114 67.0343Z" fill="#006781" fill-opacity="0.2"/>
<path d="M82.0114 67.0343C82.9778 66.1166 83.7471 65.0119 84.2733 63.7874C84.7989 62.5628 85.0704 61.2441 85.0704 59.9114C85.0704 58.5788 84.7989 57.2601 84.2733 56.0355C83.7471 54.811 82.9778 53.7063 82.0114 52.7886C80.0335 50.9112 77.4101 49.8645 74.6829 49.8645C71.9556 49.8645 69.3324 50.9112 67.3543 52.7886L60 60.1429L52.6457 52.7886C50.6676 50.9112 48.0444 49.8645 45.3171 49.8645C42.5899 49.8645 39.9667 50.9112 37.9886 52.7886C37.0222 53.7063 36.2527 54.811 35.7268 56.0355C35.201 57.2601 34.9298 58.5788 34.9298 59.9114C34.9298 61.2441 35.201 62.5628 35.7268 63.7874C36.2527 65.0119 37.0222 66.1166 37.9886 67.0343L60 88.4286L82.0114 67.0343Z" stroke="#006781" stroke-width="5.14286" stroke-linecap="round" stroke-linejoin="round"/>
<path d="M60 42.1428C65.6807 42.1428 70.2857 37.5378 70.2857 31.8571C70.2857 26.1765 65.6807 21.5714 60 21.5714C54.3194 21.5714 49.7143 26.1765 49.7143 31.8571C49.7143 37.5378 54.3194 42.1428 60 42.1428Z" stroke="#006781" stroke-width="5.14286" stroke-linecap="round" stroke-linejoin="round"/>
</svg>
