<svg width="120" height="114" viewBox="0 0 120 114" fill="none" xmlns="http://www.w3.org/2000/svg">
<rect width="120" height="114"/>
<g clip-path="url(#clip0_16_209)">
<path d="M51.2352 42.615C53.7105 40.86 56.7348 39.8285 60 39.8285C63.2653 39.8285 66.2896 40.86 68.7649 42.615C68.8166 42.5524 68.8718 42.4917 68.9303 42.4332L81.7497 29.6138C75.9033 24.6003 68.3055 21.5714 60.0001 21.5714C51.6946 21.5714 44.0966 24.6003 38.2504 29.6138L51.0698 42.4332C51.1283 42.4917 51.1835 42.5524 51.2352 42.615Z" fill="#006781" fill-opacity="0.2"/>
<path d="M68.765 67.385C66.2896 69.14 63.2654 70.1715 60.0001 70.1715C56.7349 70.1715 53.7106 69.14 51.2353 67.385C51.1835 67.4475 51.1284 67.5082 51.0698 67.5668L38.2504 80.3862C44.0966 85.3999 51.6946 88.4286 60.0001 88.4286C68.3055 88.4286 75.9038 85.3994 81.7496 80.3862L68.9304 67.5668C68.8718 67.5083 68.8167 67.4476 68.765 67.385Z" fill="#006781" fill-opacity="0.2"/>
<path d="M59.9999 70.1713C68.3789 70.1713 75.1713 63.3789 75.1713 54.9999C75.1713 46.621 68.3789 39.8285 59.9999 39.8285C51.621 39.8285 44.8285 46.621 44.8285 54.9999C44.8285 63.3789 51.621 70.1713 59.9999 70.1713Z" stroke="#006781" stroke-width="5.14286" stroke-linecap="round" stroke-linejoin="round"/>
<path d="M60 88.4286C78.4623 88.4286 93.4286 73.4623 93.4286 55C93.4286 36.5379 78.4623 21.5714 60 21.5714C41.5379 21.5714 26.5714 36.5379 26.5714 55C26.5714 73.4623 41.5379 88.4286 60 88.4286Z" stroke="#006781" stroke-width="5.14286" stroke-linecap="round" stroke-linejoin="round"/>
<path d="M88.2857 26.7142L70.7486 44.2514" stroke="#006781" stroke-width="5.14286" stroke-linecap="round" stroke-linejoin="round"/>
<path d="M31.7143 26.7142L49.2514 44.2514" stroke="#006781" stroke-width="5.14286" stroke-linecap="round" stroke-linejoin="round"/>
<path d="M31.7143 83.2857L49.2514 65.7485" stroke="#006781" stroke-width="5.14286" stroke-linecap="round" stroke-linejoin="round"/>
<path d="M88.2857 83.2857L70.7486 65.7485" stroke="#006781" stroke-width="5.14286" stroke-linecap="round" stroke-linejoin="round"/>
</g>
<defs>
<clipPath id="clip0_16_209">
<rect width="72" height="72" fill="white" transform="translate(24 19)"/>
</clipPath>
</defs>
</svg>
