<?xml version="1.0" encoding="UTF-8"?>
<svg id="Ebene_1" data-name="Ebene 1" xmlns="http://www.w3.org/2000/svg" width="75.27" height="79.34" xmlns:xlink="http://www.w3.org/1999/xlink" viewBox="0 0 75.27 79.34">
  <defs>
    <clipPath id="clippath">
      <rect x="0" width="75.27" height="79.33" style="fill: none;"/>
    </clipPath>
  </defs>
  <path d="M70.28,25.97L37.41.95,4.32,26.22l33.59,51.67,21.9-35.13.14-.24s.1,0,.13-.05c.06-.09.08-.12.1-.18.02-.07,0-.14,0-.14l.14-.22s.02.01.05,0c.04,0,.38-.09.68.24.02.02.05.13.05.16,0,.14.17.2.17.2,0,0,.21.07.4.27.08.09.18.2-.01.35-.03.02-.08.08-.13.13-.18.19.28.27.49.21.53-.16.54-.58.52-.74,0-.08-.01-.09-.03-.14-.05-.18.04-.24.2-.25.43-.03.61.31.63.36.1.2.11.39-.12.43-.17.03-.11.16-.1.26,0,.1.24.27.41.08.14-.16.14-.39.1-.51-.13-.42.04-.46.26-.61.18-.12.21-.26.16-.39-.05-.13-.13-.17-.27-.32-.17-.17-.3-.44-.18-.92.03-.13.07-.18.13-.17.07,0,.07.23.12.3.25.3.73-.04.65-.31-.13-.39-.28-.63-.5-.78-.43-.29-1.16-.19-1.33-.87-.17-.65.54-.88.36-1.35l.85-1.38c.23.14.53.15.78.14.56-.05.91-.31.66-.53-.37-.34-.59.04-1.13-.09l.31-.5c.34-.13.16-.26.16-.26l5.59-8.97h.03Z" style="fill: #00a1b2;"/>
  <path d="M37.41,0l-.5.39L3.82,25.66l-.52.4.35.54,33.59,51.67.69,1.07.67-1.08,21.9-35.13h0s.02-.04.02-.04c0,0,.07-.05.1-.08.04.04.08.07.13.1-.08.2-.07.41.03.61.17.34.57.54,1.08.54.15,0,.29-.02.41-.06.13-.04.26-.09.37-.16.19.17.45.27.73.27.31,0,.6-.13.8-.36.29-.33.34-.73.28-1.04.4-.31.54-.76.37-1.19-.03-.06-.06-.12-.09-.17.14-.08.26-.18.36-.3.22-.27.29-.6.19-.9-.11-.34-.31-.84-.79-1.16-.25-.17-.52-.25-.73-.31-.1-.03-.25-.07-.29-.1,0,0,0-.01-.01-.04,0-.04-.01-.05.11-.22s.31-.45.31-.81l.41-.66h.22c.07,0,.16,0,.25-.01.71-.06,1.23-.35,1.4-.8.13-.34.04-.71-.25-.98-.11-.1-.23-.18-.36-.24l5.42-8.7.33-.53-.51-.39L37.92.38,37.42,0h-.01ZM37.41.94l32.87,25.02-5.59,8.97s.18.13-.16.26l-.31.5c.09.02.16.03.23.03.23,0,.39-.08.56-.08.11,0,.21.03.33.15.24.22-.1.48-.66.53h-.18c-.2,0-.42-.03-.6-.14l-.85,1.38c.17.47-.53.69-.36,1.35.17.69.9.58,1.33.87.22.15.37.38.5.78.06.19-.18.43-.41.43-.09,0-.17-.03-.24-.12-.06-.07-.06-.3-.12-.3h0c-.06,0-.09.05-.12.18-.12.48,0,.75.18.92.15.15.22.18.27.32.05.13.01.27-.16.39-.22.15-.39.19-.26.61.04.13.04.35-.1.51-.06.07-.12.09-.18.09-.12,0-.23-.1-.23-.17,0-.1-.07-.23.1-.26.24-.04.22-.24.12-.43-.02-.05-.19-.36-.58-.36h-.06c-.17.01-.25.07-.2.25.01.05.02.07.03.14.01.16,0,.58-.52.74-.05.01-.1.02-.16.02-.21,0-.46-.08-.33-.23.05-.05.1-.11.13-.13.19-.16.1-.26.01-.35-.19-.2-.4-.27-.4-.27,0,0-.16-.06-.17-.2,0-.02-.03-.13-.05-.16-.19-.22-.4-.26-.54-.26-.08,0-.13.01-.14.01h-.05l-.14.22s.01.07,0,.14c-.02.05-.03.08-.1.18-.03.05-.13.05-.13.05l-.14.24-21.9,35.13L4.34,26.22,37.43.95"/>
  <path d="M50.84,39.5c.85.5,1.63,1.1,2.52,1.56,1.07.55,2.29.88,3.41,1.34.83.33,1.61.71,2.36,1.15l-6.89-4.79c-.51.16-1.06.38-1.4.74h0Z" style="fill: none; stroke: #1d1e1b; stroke-miterlimit: 10; stroke-width: .98px;"/>
  <path d="M59.05,43.99l1.46-2.35,1.05-.03v-.79l-.17-.58,3.34-5.36c-.6-.35-1.58-.25-1.81-.42-1.43-1.13-.95,1.58-2.34-1.34-.29-.6-.65-1.7-1.97-2.57-2.14-1.42-1.61-2-1.61-2,.06-.57-1.68-.82-1.68-.82,0,0-.79-.89-2.32-1.81-2.49-1.5-4.24-1.97-5.37-2.28-7.14-1.91-12.85-1.41-12.85-1.41l20.62,20.63c.6-.1.39,1.83,3.64,1.12h0Z" style="fill: #1d1e1b;"/>
  <path d="M59.05,43.99c-.93-.59-1.45-.24-2.47-.67-1.18-.5-2.41-.89-3.49-1.55-.94-.58-1.77-1.28-2.7-1.86-.11-.07-.16-.2-.09-.31.46-.71,1.34-1.08,2.16-1.33.88-.28,1.81-.44,2.73-.59.84-.14,1.69-.3,2.53-.43.39-.06.79-.1,1.18-.14-.31-1.04,1.31-2.49.77-3.44-4.58-7.99-13.43-11.5-23.91-11.07-12.58.51-18.67,6-23.64,14.21,0,0,26.01,13.1,44.57,10.98l2.37-3.8h-.01Z" style="fill: #1d1e1b;"/>
  <path d="M31.81,35.96c-1.06-6.04,3.19-7.08,3.41-7.06.33.03-2.13,2.5-1.36,6.86.59,3.32,2.16,5.1,3.01,5.74.84.64,1.43,1.2,1.03,1.15-1.03-.14-5.24-1.9-6.09-6.69h0Z" style="fill: #63c4db;"/>
  <path d="M23.67,53.69c-7.69-6.62-5.87-10.32-5.68-10.43.29-.16,1.25,4.29,6.79,9.06,4.22,3.63,7.44,4.82,8.81,5.08,1.37.26,2.44.58,2.08.76-.93.46-5.91.77-12-4.48h0Z" style="fill: #63c4db;"/>
  <path d="M25.13,40.64c.15-.01-1.19-1.33-2.35-3.04-.85-1.25-1.93-2.89-2.44-3.73-.42-.64-.63.47-1.34.74s-.83,1.33-.43,2.26c.33,1.09.57,1.48.84,2.02,1.12,2.03,4.13,3.9,2.22,1.65-.2-.24-1.53-2.01-1.75-3.6.07-.44.51-.68.88-.27.19.21.46.93,1.75,2.22,1.15,1.15,2.24,1.79,2.6,1.76h.02Z" style="fill: #63c4db;"/>
  <path d="M28.36,31.03c-1.17.1.88-1.89.37-1.89-.15,0-4.6,1.48-3.23,7.09,1.04,4.27,5.43,7.81,10.04,9.9,5.24,2.28,10.55,2.76,19.58,4.15l.35-.56c-.49-.3-17.18-2.53-23.73-8.77-3.58-3.81-3.77-6.86-3.15-8.38.22-.54.49-.64.88-.69.5-.07,0,.86.22,2.18.19,1.12.84,2.11.99,2.18s-.49-1.57-.37-3.07c.09-1.08.64-2.11.55-2.35-.22-.61-2.01.16-2.49.2h-.01Z" style="fill: #63c4db;"/>
  <path d="M24.82,38.32c.1.03-.82-1.24-1.39-2.08-.52-.72-.32-1.46-.56-1.72-.16-.17-.6-.91-.79-.61-.18.3.34,1.61.83,2.45.53.9.82,1.61,1.91,1.96h0Z" style="fill: #63c4db;"/>
  <path d="M30.89,44.95c-2.56-1.94-5.04-5.84-5.16-5.99-.21-.26-.32.2-.22.6.25.75.62,1.47,1.09,2.13.64.92-.44.56-1.07.35-1.39-.45-3.06-2.04-3.32-2.03-.27,0,1.04,3.26,9.43,7.19,3.9,1.72,7.84,2.76,10.42,3.22.8.25.79.26.5-.56-.18-.53-6.84-1.71-11.66-4.9h-.01Z" style="fill: #63c4db;"/>
  <path d="M24.68,44.14c-.86-.42-1.7-.89-2.51-1.4-1.65-1.09-3.41-2.67-3.41-2.38,0,.56,2.57,4.16,5.25,4.61.81.14,1.01-.59.67-.83h0Z" style="fill: #63c4db;"/>
  <path d="M41.55,51.95c-.86-.42-3.77-.78-6.53-1.54-4.25-1.11-9.78-4.72-9.78-4.34,0,.56,2.27,3.94,10.3,5.73,2.48.53,6.35.39,6.01.15h0Z" style="fill: #63c4db;"/>
  <path d="M37.41,50.23c-.77-.56-3.56-1.39-6.13-2.58-3.97-1.79-8.72-6.24-8.79-5.86-.09.55,1.48,4.25,9.04,7.32,2.34.93,6.18,1.42,5.89,1.13h0Z" style="fill: #63c4db;"/>
  <path d="M47.57,41.16c-.42-.09-.82-.25-1.17-.47-1.03-.71-1.56-2.04-1.43-1.96.26.17,1.17,1.22,2.13,1.79h0c.51.3.81.71.48.64h-.01ZM45.67,41.43c-2.64-.88-3.23-3.41-3.15-3.71.04-.17,1.26,1.33,2.31,2.36.79.78,1.43.98,1.5,1.15.07.17-.33.31-.66.2h0ZM41.34,38.53c-.29-.07-.99-1.25-1.47-1.35s1.47,2.67,1.25,2.63c-.22-.03-1.9-1.02-2.93-2.9-.68-1.27-.92-2.7-.7-4.1.11-.51.37-.79.48-.35s.18,2.36,1.39,3.44c.56.5.04-1.15.44-1.08.14.02.3.93.7,1.69.36.68.96,1.24.99,1.35.07.24.15.74-.15.68h0ZM59.05,43.99c-3.07-1.4-7.67-3.34-9.65-5.65-2.13-2.49-2.86-5-1.8-6.14l4.45-1.57-11-4.66-4.22.61s-3.57.86-4.22,2.84c-.11.34.73-.45,1.91-1.08,1.17-.63,3.45-.74,3.45-.74,0,0,.3.3-.07.47-1.99.9-2.7,2.07-3.08,3.31-.64,2.1-.37,4.12.29,4.46.2.1,0-1.96.29-3.24.31-1.39.73-1.82,1.03-1.89.15-.03-.59,4.19,1.39,7.43,1.82,2.96,5.72,6.11,19.21,9.08" style="fill: #006a80;"/>
  <path d="M44.26,37.92c.27.15-.42-1.75-.38-3.29.03-1.13.66-2.13.62-2.21-.12-.24-.35-.83-.46-.93s-.75-.25-.93-.32-.4.15-.55.52c-.34,1.14-.34,2.35,0,3.5.36,1.24,1.43,2.58,1.7,2.74h0Z" style="fill: #06416a;"/>
  <path d="M44.26,37.92c.27.15-.42-1.75-.38-3.29.03-1.13.66-2.13.62-2.21-.12-.24-.35-.83-.46-.93s-.75-.25-.93-.32-.4.15-.55.52c-.34,1.14-.34,2.35,0,3.5.36,1.24,1.43,2.58,1.7,2.74h0Z" style="fill: none; stroke: #06416a; stroke-width: .03px;"/>
  <path d="M40.94,29.58c-.67-.06-.92-.51-1.65-.14-.08.04-.67.95-.7,1.89-.03,1.14.4,2.23.51,2.36.11.14.29-.17.33-.34.07-.71.2-1.41.4-2.09.16-.5.45-.95.84-1.32.29-.2.55-.03.51.14s-.73,1.42-.73,2.77c0,1.17.68,2.43.77,2.47.18.07.18-.37.11-.57-.24-.73-.32-1.5-.22-2.26.15-1.15.81-1.86.92-2.06.11-.2-.33-.74-.44-.84-.11-.1-.29.03-.66,0h.01Z" style="fill: #06416a;"/>
  <path d="M40.94,29.58c-.67-.06-.92-.51-1.65-.14-.08.04-.67.95-.7,1.89-.03,1.14.4,2.23.51,2.36.11.14.29-.17.33-.34.07-.71.2-1.41.4-2.09.16-.5.45-.95.84-1.32.29-.2.55-.03.51.14s-.73,1.42-.73,2.77c0,1.17.68,2.43.77,2.47.18.07.18-.37.11-.57-.24-.73-.32-1.5-.22-2.26.15-1.15.81-1.86.92-2.06.11-.2-.33-.74-.44-.84-.11-.1-.29.03-.66,0h.01Z" style="fill: none; stroke: #06416a; stroke-width: .03px;"/>
  <path d="M24.06,27.55l-2.88,1.88-1.17.59c.54-.06-1.6.44-1.07.52.98.16-1.77.65-1.14.74,1.17.17-1.65,1.73-2.04,2-.97.7-1.69,8.16-1.4,8.09.29-.07,6.68,8.67,9.96,8.07-11.38-15.81-3.12-7.62-2.86-7.52.26.1-5.72-5.65-2.54-7.77.71-.47.6-1.47,1.17-1.58.62-.12.74,2.73,2.01,2.97.17.03-.75-1.93-.57-2.79.14-.7.8-.96.88-.52.11,1.81,2.42,5.36,2.16,4.11-.67-2.01-1.42-5.09-.17-4.09.14.11.29-.14.4-.37,1.61-3.41,5.79-4.26,6.05-4.29s.44.1.29.2c-.22.24-.36.53-.4.84,0,.34.32.26.59-.03,1.36-1.52,2.9-1.96,2.9-1.96l-3.89-2.09-6.29,3h.01Z" style="fill: #06416a;"/>
  <path d="M24.06,27.55l-2.88,1.88-1.17.59c.54-.06-1.6.44-1.07.52.98.16-1.77.65-1.14.74,1.17.17-1.65,1.73-2.04,2-.97.7-1.69,8.16-1.4,8.09.29-.07,6.68,8.67,9.96,8.07-11.38-15.81-3.12-7.62-2.86-7.52.26.1-5.72-5.65-2.54-7.77.71-.47.6-1.47,1.17-1.58.62-.12.74,2.73,2.01,2.97.17.03-.75-1.93-.57-2.79.14-.7.8-.96.88-.52.11,1.81,2.42,5.36,2.16,4.11-.67-2.01-1.42-5.09-.17-4.09.14.11.29-.14.4-.37,1.61-3.41,5.79-4.26,6.05-4.29s.44.1.29.2c-.22.24-.36.53-.4.84,0,.34.32.26.59-.03,1.36-1.52,2.9-1.96,2.9-1.96l-3.89-2.09-6.29,3h.01Z" style="fill: none; stroke: #06416a; stroke-width: .03px;"/>
  <path d="M44.51,41.6c-.31-.16-.6-.34-.88-.54-.59-.45-1.16-1.01-1.21-.88-.04.1.25.58.66,1.01.25.28.6.49.99.57.26.07.73,0,.44-.17h0Z" style="fill: #06416a;"/>
  <path d="M44.51,41.6c-.31-.16-.6-.34-.88-.54-.59-.45-1.16-1.01-1.21-.88-.04.1.25.58.66,1.01.25.28.6.49.99.57.26.07.73,0,.44-.17h0Z" style="fill: none; stroke: #06416a; stroke-width: .03px;"/>
  <path d="M57.82,35.31c.12-.02.75,1.06.88,1.04,1.23-.19,1.5.7,2.7.38.15-.04-.2-.2-.06-.24-.5-.22-.39-.23-.39-.23,0,0-1.24-.56.39-.66.44-.03.84-.39.84-.39,1.65.31,2.67,0,2.54-.21-.36-.58-2.13-.66-2.13-.66-.74-.08-1.19-.58-1.42-.87-.25-.32.12-.68.4-.7s.62.13.93-.12.09-.82-.41-1.11-1.71-.79-2.37-1.14c-.65-.35-1.08-.92-1.77-1.48-.69-.55-1.68-.82-1.68-.82,0,0,.2,2.23.8,3.16.42.65.87,1.76.74,4.06h.01Z" style="fill: #dee3e3;"/>
  <path d="M37.86,28.53c.99.24,2.2.14,3.37.54.29.1,1.42-.28,1.72-.17.55.2.48.88.33.95-.15.07-1.17-.61-1.1-.3.04.17.7.71,1.06.95.37.24,1.25.37,1.25.37,0,0,.18.54.37.71.18.17,1.16.25,1.28.47.29.54,1.17,1.42,1.43,1.49s.7.07.84-.07c.15-.14.29-.54.44-.57s.92-.27,1.47,0,1.28.78,1.47,1.28c.18.51-.24,1.34-.04,1.99.15.47,1.25.61,1.36,1.11.06.28.54.45.8.6.52-.11.75-.13,1.27-.22.84-.14.29-.81,1.14-.94.83-.13.18-.91.44-1.23,0,0,.52-.86,1.23.23.5.78.91.45,1.02.41.59-.17.1-.6.1-.6l.24-.73.55-.95.62-1.11.35-1.78-4.01-3.15s-5.5.49-5.72.26c-.22-.24-2.53-3.21-2.53-3.21l-1.1-.68-3.41-1.59-9.63-.79-11.57,2.68-1.03,2.84-4.55,3.83s-2.01,3.68-1.69,3.52c.4-.17,1.15-.55,1.72-1.08.6-.57,1.51-1.67,2.02-1.86.37-.14.65-.05.99-.18s-.11-.6.18-.6,2.11-.32,2.66-.79-.2-.36.03-.49c.22-.1.43.02.84-.18.35-.22-.39-.5.69-.68,1.21-.2.92-.54,1.03-.64s2.27-.2,3.08-.98c.48-.46.04-1.25.26-1.25.48.04.95.14,1.39.3.43.17.71.48,1.03.51.73.07.88-.61,1.98-.37.45.1.58.71.99.91.62.3,1.21.03,1.69.2.73.27.81.84,1.69,1.05h-.04Z" style="fill: #afcaca;"/>
  <path d="M42.46,22.63c-.08-.18,1.55.29,3.49,1.13,1.74.75,2.3,1.42,2.1,1.42s-1.23-.4-1.43-.44-.36.26-.71.22c-.36-.04-2.38-1.06-2.46-1.24-.04-.09.21-.09.71.07.54.17,1.35.51,1.31.4-.2-.55-2.93-1.39-3.01-1.57h0ZM48.23,30.22c0-.13.4-.27.59-.17.21.16.41.34.59.54,0,0,.77.1.66.2-.11.1-.84.13-.99.2s-.22.27-.33.41c-.11.13-.62.13-.81.1-.18-.03-.73-.68-.73-.91s.73.34.99.3c.26-.03.04-.54.04-.68h0ZM26.31,26.64c-.6.17-1.39-.3-1.65-.24-.26.07,0,.47-.66.54-.62.07-1.02-.51-1.1-.71-.15-.37,1.54.17,2.05-.27.19-.16.15-.44-.11-.61-.42-.22-.88-.36-1.36-.41-.44-.03-.37.08-.55-.02s.6-.32.97-.32.68.38,1.01.41c.33.03,1.36.07,2.09.3.73.24-.11,1.15-.7,1.32h.01ZM24.66,24.25c.15-.13.84-.17,1.36-.1.51.07,1.25.3,1.03.37-.48.1-.98.12-1.47.07-.44-.07-1.06-.2-.92-.34h0ZM53.07,31.78c.37.5.37,1.86.26,1.79-.2-.19-.36-.4-.48-.64-.04-.14.07-.54-.26-.91s-1.39-.78-1.43-.98c-.04-.2,1.5.2,1.91.74h0ZM55.46,31.81c.33.2,1.28,1.55,1.43,1.62s.29-.13.18-.41c-.11-.27-1.06-1.55-.73-1.49.33.07.37.27.59.3.22.03.45-.71.6-.54.07.08,1.32.4,1.43.59.11.19.91.42.94.52.07.2-.07,1.23-.07,1.4s-.45.69-.38.83c.07.13-.23,1.31-.38,1.27-.15-.03-.41.32-.41.32,0,0-.44-.1-.45.06-.04.68.44.18.47.41.04.24-1.65,2.4-1.87,2.33s-2.2-.96-2.23-1.06c-.04-.1-1.05-5.08-.86-5.31.15-.25,1.17-.88,1.07-1.15-.07-.24.57.75.42.58s-.07-.51.26-.3h0v.03ZM43.93,30.17c.13.35.42.02.71.08.29.07.48.88.82.98.35.1.86.13,1.12.41.26.27.84,1.15,1.25,1.27.4.12.4-.35.6-.46.2-.1,1.67-.47,2.42,0s1.23.81,1.43,1.37c.2.56-.13,1.84.11,2.28s1.08.14,1.37,1.18c.08.3.61.72.91.74.25.01,1.23.8,1.49.95.74-.12,1.97.08,1.97-.6,0-.99,1.14-1.37,1.38-.41.31-.66.32-2.46.21-2.75-.51-1.34-2-6.36-4.12-7.5-2.24-1.2-1.43-1.4-1.64-1.43-.51-.08-8.91-3.29-11.37-4.02-4.11-1.25-9.09-.57-11.19-.51-1.64.11-2.88.75-4.95,1.38-1.28.39-3.43.68-4.54,1.97-.52.06-1.11.88-1.59,1.07-.52.24-1.64.9-2.06,1.29-.34.95-.9,1.47-1.87,1.86-.74.31-1.63,2.52-2.23,3.01-1.09.25-2.49,2.86-3.27,4.02l7.86,12.09c.77-.38-2.4-3.77-3.05-5.3-.62-1.96-.36-3.71-.28-3.83.35-.47,1.77,2.26,2.34,1.68.58-.82-3.36-3.87-1.81-5.99.3-.41.79,1.14,1.34,1.04s-1.23-2.26.77-3.48c.29-.04.41-1.05,1.43-1.09,1.2-.04.23-.82.69-.78.36.02.91.02,1.26-.16.31-.16-1.14-.49.06-.53.41-.01.9.36,1.35.09.21-.35-1.26-.92-.27-.76,1.45.23,1.39-1.32,1.74-1.2,1.1.37.62-.42,1.14-.51.51-.08,1.14.21,1.28.03.73-.88,1.07-.36,1.28-.59.88-.93,0-1.57,0-1.57,0,0-.51-.3.44-.15.95.15,1.98.29,2.25.3.27.02.53.32.88.35.35.03,1.63-.88,2.75-.46.38.14.49.52.16.46-.33-.07-1.61-.47-1.04-.05s1.87.91,1.87.91c0,0,.57.11.49-.25-.18-.88.66-.84,1.1-.71.44.14,2.27,1.25,2.31,1.42s-1.1-.22-1.03-.03,1.32.86,1.52.89c.53.08-.13-.64.16-.56s1.1.78,1.59.81.75-.57,1.56-.1.73,1.52.86,1.87h0l.04-.02Z" style="fill: #dee3e3;"/>
  <path d="M40.42,58.52c-.15-.13-.3-.19-.46-.19-.08,0-.14,0-.2.02-.04,0-.08,0-.12.02h-.1c-.31.02-.73.04-.89.35-.07.13-.14.38-.2.71-.03-.02-.06-.03-.08-.04-.09-.03-.64-.2-.69-.21-.09-.03-.32-.09-.79-.19-.11-.02-.2-.04-.25-.05-.05,0-.11-.02-.16-.02-.26,0-.49.14-.63.39-.09.16-.14.47-.2,1.08-.14-.19-.4-.36-.89-.37-.09,0-.18-.07.02-.33l.07-.09c.2-.27.48-.65.54-.73.02-.02.04-.05.05-.07.53-.04,1.15-.17,1.6-.67.21-.23.71-.87.97-1.87.1-.39.25-1.01.37-1.51h.14c.12.4.29.69.44.92.22.34,1,1.24,1.66,1.31.11,0,.22.02.33.02h.25c-.17.57-.37,1.31-.42,1.58-.05.18-.35-.03-.35-.04M32.96,65.35v-.06s.02,0,.03,0h0s-.02.03-.03.05M42.22,48.92c.02-.07.04-.15.05-.19.02-.05.04-.12.07-.2h.02c.06,0,.11-.01.16-.02-.06.26-.1.52-.08.73v.05c-.02.17-.03.33-.02.48.04.43.2.95.36,1.28-.15.23-.33.51-.5.77.18-1.09.08-1.43-.17-1.67-.1-.1-.23-.18-.47-.26.36-.21.47-.61.57-.97M29.77,64.97c-.02.07-.07.25-.24.63-.16.38-.67,1.15-1.03,1.66-.03-.16-.06-.56.05-1.49.04-.34.25-1.56.33-1.96.18-.15.62-.47.91-.68-.03.15-.05.29-.07.43v.1c-.09.5,0,1.12.04,1.31M23.97,55.86c-.64.38-2.3,1.25-3.57,1.68.43-.28,1.03-.65,1.2-.74.28-.15.46-.4.49-.69.03-.31-.11-.56-.27-.74.58-.21,1.7-.59,2.24-.75.4-.12,1.55-.4,2.34-.57l-2.42,1.81h-.01ZM55.2,48.94c-.07-.13-.2-.21-.35-.24l-.42-.07c-.08-.01-1.18-.02-1.27-.02-1,.04-1.85.51-2.57.99,0-.13,0-.26.05-.38.09-.29.21-.55.3-.76.18-.4.34-.74.12-1.12-.23-.4-1.14-.9-1.6-1-.12-.03-.24-.06-.36-.09-.24-.06-1.36-.19-1.41-.19-.27,0-.4.2-.47.31-.02.03-.37.58-.57,1.19-.3-.18-.69-.31-.84-.35-.25-.07-1.28-.28-1.31-.29-.12-.03-.25-.06-.39-.07-.13-.41-.55-.89-1.19-1.01-.05-.01-.12-.02-.19-.03-.06-.54-.14-.69-.21-.8-.23-.32-.58-.38-1.07-.47-.09-.02-.17-.03-.23-.04,0,0-1.42-.18-1.49-.18-.06,0-.12.01-.17.03-.17.07-.18.09-.41.99-.03.13-.07.29-.11.41-.29.03-.78.09-.93.12-.26.05-.53.18-.68.44-.26.45.11,1.34.23,1.57.13.22.79.91,1.2.93h.11c.12,0,.23-.01.33-.03.04.1.07.19.1.25.04.11.13.28.26.46.04.07-.08.03-.16.02-.13-.03-.22-.05-.31-.05-.19,0-.29.09-.34.14-.07.08-.13.25-.19.44-.09-.16-.23-.29-.47-.37-.03,0-.91-.31-1.22-.37-.16-.03-.91-.17-1.02-.17-.12,0-.23.02-.34.07-.17.08-.25.24-.32.68-.02.14-.04.29-.06.43-.3-.05-.83-.07-.99-.08-.23-.02-.46-.03-.53-.03h-.28c-.2,0-.35.05-.45.16h0s-.07.06-.1.09c-.3-.35-.66-.61-.67-.61-.31-.21-1.01-.36-1.5-.36-.23,0-.56.07-.84.4-.41.48-.69,1.31-.85,2.53-.42-.3-.94-.52-1.4-.67.7-.6.92-2.14.92-2.16.12-.9-.48-1.54-.74-1.77-.41-.36-1.36-.79-2.31-.68-.65.08-2.98,1.28-3.54,1.63-1.2.73-2.37,2.04-2.7,2.43-.69.8-.92,1.86-.86,2.36-.02.21-.03.39,0,.56,0,.11.04.21.09.3-.36.07-.77.18-1.18.29-.07.02-.13.03-.18.05-.79.21-2.18.6-2.63.92-.51.36-.64.82-.67.94-.07.27-.03.9.11,1.02l.15.12,1.46,1.2.17.14c.09.08.21.12.33.12.08,0,.16-.02.23-.05l.21-.1s.18-.09.37-.18c.13.34.33.68.92,1.22.82.76,1.78,1.09,3.3,1.15h.23c1.5,0,2.81-.6,3.78-1.12.89-.48,1.71-1.07,2.66-1.94.65-.59,1.19-1.25,1.59-1.87.08.27.16.53.25.76.33.86.58,1.44,1.13,1.76-.42.3-.81.58-1.02.74-.19.14-.47.34-.74.54-.31.24-.4.22-.48-.03-.03-.05-.06-.1-.11-.13-.07-.05-.15-.07-.25-.07-.06,0-.11,0-.18.02-.07,0-.16.02-.24.03h0c-.1,0-.33-.03-.53-.06-.24-.03-.46-.06-.6-.06h-.02c-.29,0-.82.13-1.01.2-.3.11-.36.4-.4.61,0,.06-.02.12-.04.17-.04.12-.11.49-.22,1.04-.05.27-.12.6-.16.76-.16.1-.41.22-.58.23h-.07c-.52-.07-.94-.37-1.13-.38h-.09c-.29,0-.44.11-.52.2-.16.2.27,1.3.43,1.62.04.08.08.16.13.25.37.72,1.07,1.11,1.81,1.03,0,.09.02.18.02.28.05.56.17,1.02.34,1.41.32,1.23,1.03,1.9,1.57,2.41.81.76,2.03.75,2.39.72h.11c.15,0,.3-.04.41-.07.64-.16.94-.8,1.24-1.42.06-.12.11-.24.17-.35.12-.22.26-.51.39-.77.26.22.37.28.42.3.56.3,1.54.08,1.73.03.54-.14.8-.56,1.27-1.33l.06-.1c.32-.52.54-1,.65-1.24.11-.07.27-.18.43-.29h0c.06.14.13.25.19.35.35.48.69.77,1.42.86.89.1,1.41-.58,1.75-1.04l.03-.04c.07-.1.16-.21.25-.34.03.03.06.05.09.07.42.27,1.14.37,1.7.07.23-.12.45-.34.68-.71.21.61.55,1.05.68,1.21.51.61,1.15.86,2.02.79h.02c.97-.09,1.58-.81,2.12-1.54.65-.88.7-2.22.7-2.48v-.13c0-.17.02-.46-.25-.69-.17-.14-.38-.2-.63-.18-.01-.02-.03-.03-.04-.05-.01,0-.03-.02-.05-.04.34-.72.44-1.45.37-1.9-.08-.58-.7-1.03-1.53-1.17-.21-.1-.46-.18-.73-.21.13-.55.14-.64.14-.68.05-.43-.22-.79-.49-.98-.14-.1-.42-.17-.71-.21-.02-.02-.04-.03-.06-.05-.11-.08-.4-.13-.69-.16.02-.03.04-.05.06-.08.03-.04.07-.1.17-.28.38.35.91.67,1.51.69h.26c.83,0,1.41-.11,1.76-.35.43-.28,1.14-1.41,1.15-1.43.32.33.75.63,1.25.75.31.07.61.11.88.11.63,0,1.15-.18,1.52-.53.04-.04.08-.07.12-.11.3-.27.72-.64.75-1.38.02-.5-.13-1.07-.39-1.45.17-.1.4-.22.69-.33.19-.08.39-.09.57-.09.09,0,.65,0,.65,0h.01c.2,0,.38-.11.46-.27l.69-1.4.18-.36c.06-.13.06-.28-.01-.41" style="fill: #1d1e1b;"/>
  <path d="M42.78,58.03s-.21-.23-.19-.44c.03-.25.03-.68.34-.65.27.02-.15,1.09-.15,1.09M33.61,63.65s-.22-.17-.36-.38.12-1.19.3-1.61.14-.21.22-.13.06.59.09,1.01-.24,1.11-.24,1.11M33.1,65.04c-.07.11-.42.66-.55.8s-.48.3-.48.3c0,0-.13-.19-.25-.44s-.11-.7-.09-1.18c.02-.49.36-1.52.36-1.52,0,0,.07.36.18.69s.43.53.53.59c.1.05.54.23.54.23,0,0-.17.43-.24.55M46.2,61.43c-.19.02-.1.07-.18.48-.07.41-.2,1.06-.62,1.67-.41.61-1,.68-1.08.66-.08-.02-.15-.46-.12-1.05.03-.6.6-1.65,1.05-2.4.45-.75.55-1.54.5-1.9s-.67-.66-1.37-.67c-.71,0-1.11.03-1.11.03,0,0,.35-1.39.37-1.58s-.13-.35-.23-.42c-.1-.07-.99-.16-1.24-.16s-.34.15-.45.33c-.1.18-.61,1.97-.64,2.25-.03.29.14.36.29.5.16.13.68.32.68.32,0,0-.32.92-.67,1.62s-.69,1.61-.94,1.59-.22-.33-.26-.65c-.04-.31.02-1.69.09-2.3.04-.38.11-.82-.09-.99s-.29-.08-.52-.06-.64,0-.73.18-.23.75-.3,1.69c-.07.95-.13,1.58-.42,2.41-.29.82-.73,1-.87,1.02-.15.02-.13-.39-.11-.9s.5-2.78.54-3.12-.1-.46-.23-.5c-.12-.04-.82-.19-1-.23-.17-.04-.32.05-.41.22-.1.16-.16.9-.22,1.53-.06.64-.1.83-.51,1.42-.29.42-.74.72-.74.72,0,0,.17-.97.19-1.29.02-.32-.24-1.33-.31-1.53-.06-.2-.39-.16-.51-.16s-.9.21-1.07.26c-.17.05-.35.29-.46.51-.11.21-.41.86-.41.86,0,0-.54-.04-.82-.13-.28-.09-.39.07-.73.46s-.42,1.05-.5,1.61c-.08.55.06,1.27.06,1.27,0,0,0,.15-.27.74-.26.6-1.31,2.12-1.5,2.28s-.37.08-.58-.03c-.21-.11-.33-.52-.47-.96-.14-.45-.03-1.44,0-1.81.04-.37.33-2.04.39-2.19.06-.15,1.2-.92,1.95-1.49.72-.54,1.48-1.41,1.55-1.49,0,.03,0,.11.03.26.05.39.16.41.37.42s.81-.72,1.08-1.08,1.07-1.17,1.2-1.34-.05-.24-.22-.29c-.17-.05-.43-.12-.67-.18-.23-.06-.29-.03-.53.14-.24.16-1.98,1.41-2.54,1.83s-1.76,1.29-1.76,1.29c0,0,.05-.43.07-.58.02-.14,0-.31-.05-.33-.04-.03-.22.03-.45.04-.23,0-.92-.12-1.15-.12s-.73.12-.89.18c-.17.06-.17.33-.24.57-.07.24-.35,1.76-.4,1.9,0,0-.48.33-.86.36-.82.05-.96-.36-1.25-.38-.1,0-.25,0-.32.08-.07.09.12.41.37.89s.68.74,1.14.66c.46-.07.79-.23.79-.23,0,0,.02.11.15,1.64.14,1.56.86,2.26,1.52,2.88.66.62,1.83.58,2.24.48.4-.1.67-.86.97-1.43.3-.57.79-1.59.79-1.59,0,0,.74.72.99.85.25.14.9.04,1.19-.03.28-.07.48-.42.92-1.13.43-.71.68-1.34.68-1.34,0,0,.28-.18.58-.39.3-.21.76-.75.76-.75,0,0,.18.89.44,1.25s.44.52.93.58.8-.38,1.12-.81.74-1.09.74-1.09c0,0,.37.52.57.65.2.13.63.22.96.04.33-.18.75-.98,1.12-1.8.37-.81,1.22-2.65,1.22-2.65l.31-.03s-.11.23-.34.66c-.23.44-.42,1.17-.65,2.19-.23,1.02.27,1.89.6,2.29.33.4.72.59,1.4.54.69-.06,1.41-.57,1.9-1.23.52-.69.49-1.89.5-2.18,0-.29-.13-.36-.32-.33M49.74,52.99s-.04.1-.09.14c-.05.06-.13.11-.24.13-.04,0-.09.02-.14.02h-.31s-.02,0-.03,0c-.01,0-.02,0-.03,0-.01,0-.02,0-.03,0-.01,0-.02,0-.03,0-.01,0-.02,0-.03,0,0,0-.02,0-.03,0-.01,0-.02,0-.03-.02,0,0-.02,0-.03,0-.01,0-.02,0-.03-.02,0,0-.02,0-.03,0,0,0-.02,0-.03-.02,0,0-.02,0-.02,0,0,0-.02,0-.02-.02,0,0-.01,0-.02-.02,0,0-.01,0-.02-.02,0,0-.01,0-.02-.02,0,0-.01,0-.02-.02h-.01s0-.03-.01-.03h0v-.05h0s0-.04.01-.06c0-.02.02-.04.04-.06.06-.07.16-.14.27-.25.19-.19.41-.34.41-.34,0,0,.58.51.57.75v.05M45.21,54.09c-.21.2-.39.16-.66.17h-.25s-.04,0-.06,0c0,0-.03,0-.04,0-.02,0-.04,0-.05-.02,0,0-.03,0-.04,0-.02,0-.03,0-.05-.02,0,0-.02,0-.03,0-.02,0-.03,0-.04-.02,0,0-.02,0-.02,0,0,0-.02,0-.03-.02h0s-.02-.02-.03-.03c0,0-.02-.03-.02-.04,0-.07.05-.18.15-.3.07-.09.16-.19.26-.29.07-.06.14-.13.21-.2.22-.2.44-.39.44-.39,0,0,.4.22.49.59,0,.03.01.05.01.08v.08c0,.16-.07.34-.22.49M53.67,49.07h-.31c-.06,0-.11,0-.18,0-.17,0-.34.03-.51.06-.28.06-.54.15-.81.26-.42.18-.82.43-1.22.71-.25.17-.8.64-.8.64,0,0-.17-.13-.3-.4-.02-.04-.04-.08-.06-.13s-.04-.1-.06-.16c-.04-.12-.08-.25-.11-.4-.06-.29-.07-.63.04-.98.21-.69.55-1.19.49-1.31-.06-.11-.69-.53-1.05-.61-.27-.06-.53-.13-.73-.18-.07-.01-.13-.02-.18-.03h-.2s-.02,0-.03.01h0l-.03.03h0s-.02.02-.03.04h0s-.03.05-.04.07c-.14.22-.68,1.17-.68,1.82,0,.1.02.22.04.34.02.12.06.25.1.38.01.04.03.08.04.12.04.12.08.24.12.34.01.03.02.06.04.09.06.15.1.24.1.24,0,0-.28.26-.54.43-.11.08-.26.17-.39.25-.17.1-.31.19-.31.19,0,0-.09-.13-.19-.34-.1-.21-.21-.49-.24-.8-.02-.15-.03-.28-.04-.4-.03-.35-.01-.55.04-.71.08-.21.28-.63.23-.68-.02-.02-.09-.06-.18-.11-.03-.02-.06-.03-.1-.05-.07-.03-.15-.07-.23-.1s-.16-.06-.23-.08c-.02,0-.04,0-.06-.01-.13-.03-.31-.07-.49-.11-.06-.01-.12-.03-.18-.04-.09-.02-.17-.04-.24-.05-.02,0-.05,0-.07-.01-.06-.01-.11-.02-.14-.03h0s-.06-.01-.09-.02c-.03,0-.07-.02-.1-.02h0s-.06-.01-.08-.02h-.16s-.04.04-.07.07c-.08.11-.2.32-.27.49-.09.22-.38,1.09-.34,1.52.02.21.08.45.15.67.07.21.14.39.2.48.11.18.25.4.25.4,0,0-.89,1.37-1.17,1.82-.03.05-.05.08-.07.11-.08.13-.32.5-.55.84-.06.08-.11.17-.16.25-.03.04-.05.08-.08.11-.12.18-.21.31-.22.34,0,0,0,0,0,.02,0,0,0,0,0,.02,0,0,0,.02-.02.03v.02s0,.02-.02.03c0,0,0,0,0,.02,0,0,0,.02-.02.02,0,0,0,0,0,.02,0,0,0,0-.02.02h0s0,.02-.02.03h-.06c-.07-.02-.3-.54-.18-1.52.04-.3.07-.55.1-.76.02-.16.05-.3.06-.42,0-.03,0-.06,0-.08.03-.16.05-.28.07-.39.02-.12.05-.33.07-.54v-.09c0-.09,0-.17,0-.24v-.13c0-.05,0-.09-.03-.11-.08-.08-.69-.21-1.17-.3-.05,0-.1-.02-.15-.03h-.04s-.07,0-.1-.02c-.05,0-.09-.02-.13-.03h0s-.05,0-.07-.02h-.18s-.02,0-.03.02c0,0-.02.02-.02.04-.06.11-.15.38-.2.68,0,.05-.02.1-.03.15-.06.4-.19,1.31-.22,1.48,0,.04-.02.09-.03.14-.04.14-.11.28-.33.36-.05.02-.09.03-.13.04h0s-.07,0-.1,0h-.07s-.02,0-.03,0h-.02s-.02,0-.03-.02h0s-.03-.04-.04-.05c-.03-.05-.07-.11-.11-.19-.07-.13-.14-.3-.19-.52-.02-.12-.05-.27-.07-.42s-.04-.31-.04-.45v-.29c.02-.35.07-.82,0-.84-.1-.03-.69-.3-.89-.34-.04,0-.09-.02-.13-.03-.02,0-.04,0-.05-.02-.03,0-.07-.02-.1-.03-.04,0-.08-.02-.12-.03h-.03s-.08,0-.11,0h-.1s-.06.02-.09.03c-.09.04-.22.77-.21,1.21,0,.27.21.95.43,1.27.05.07.1.14.15.21.05.06.1.12.14.17.08.1.14.17.14.2,0,0,0,.05,0,.11,0,.03,0,.07-.02.12,0,.02,0,.05,0,.07,0,.05-.02.1-.03.16,0,.09-.03.18-.05.29-.02.1-.03.21-.05.32s-.04.22-.06.34c-.03.15-.05.3-.08.44-.07.35-.13.65-.18.78-.15.42-.41.9-.49,1.02-.09.13-.42.23-.42.23h0v-.46s0-.07,0-.11c-.07-.63-.1-2.55-.03-2.99,0-.05.02-.12.02-.2.02-.32.03-.8.03-1.17v-.55s0-.06-.02-.09c0-.02,0-.03,0-.04-.03-.07-.08-.13-.18-.15-.06,0-.19-.03-.33-.04-.05,0-.1,0-.15,0-.1,0-.2,0-.28-.02h-.59s-.02,0-.03,0h-.02s-.03.02-.04.03c-.09.1-.21,0-.46,1.08-.02.09-.04.19-.05.3,0,.07-.02.14-.02.22,0,.16-.02.32-.03.48v.66c0,.17.03.37.05.54.02.13.03.24.03.3,0,.02,0,.04,0,.05-.04.1-.38.79-.43.88-.05.08-.48,1.01-.48,1.01,0,0-.37-.65-.4-1.27-.02-.6-.13-1.05.14-2.43.02-.11.04-.21.07-.31.1-.42.21-.68.26-.92.03-.13.04-.26.03-.4,0-.03,0-.06-.03-.1-.05-.1-.15-.23-.26-.35-.02-.02-.04-.04-.06-.06-.09-.09-.19-.18-.27-.24-.03-.03-.06-.05-.09-.06-.04-.03-.08-.05-.12-.07h0s-.08-.03-.11-.05h-.02s-.08-.02-.11-.03h-.02s-.08,0-.11,0h-.16s-.03,0-.04,0c0,0-.02,0-.03,0,0,0-.03,0-.04.02,0,0-.02,0-.03,0,0,0-.03,0-.04.02,0,0-.02,0-.03.02,0,0-.03.02-.04.03,0,0-.02,0-.03.02-.02,0-.03.03-.04.04,0,0,0,0-.02.02-.02.02-.04.04-.06.07-.35.4-.64,1.18-.8,2.55-.13,1.14.19,2.78.55,3.7s.54,1.28.92,1.42c.05.02.09.04.14.05,0,0,.02,0,.04,0,.03,0,.06.02.08.03,0,0,.03,0,.04,0,.02,0,.04,0,.06.02h.2s.03,0,.04-.02c0,0,0,0,.02,0,.02,0,.04-.03.06-.05.16-.16.61-.68.78-1.03.03-.07.08-.15.13-.25.22-.42.55-1.02.55-1.02,0,0,.02.09.06.22,0,.04.03.09.05.15.03.08.06.17.1.25.07.15.15.3.26.43.02.03.04.05.06.08h0s.04.06.06.08c0,0,.02.02.03.04,0,.02.03.03.04.05,0,0,.02.02.03.04,0,.02.03.04.04.05,0,0,.02.02.03.04,0,.02.03.03.04.05,0,0,.02.02.03.04,0,.02.03.03.04.05,0,0,.02.02.04.04,0,.02.03.03.04.05,0,0,.03.02.04.04,0,0,.03.03.04.04,0,0,.03.02.04.04,0,0,.03.03.04.04,0,0,.03.02.04.03,0,0,.03.02.04.04,0,0,.03.02.04.03.02,0,.03.02.05.03,0,0,.03.02.04.02.02,0,.03.02.05.03,0,0,.03,0,.04.02.02,0,.03.02.05.02,0,0,.03,0,.04.02.02,0,.03,0,.05.02h.19c.49-.02.92-.1,1.2-.4.28-.31.62-.84.8-1.56.19-.72.54-2.28.54-2.28,0,0,.02,0,.04.02h.02s.02,0,.03,0c0,0,.02,0,.04,0,0,0,.03,0,.04,0,.02,0,.03,0,.05.02,0,0,.03,0,.05,0,.02,0,.04,0,.06.02.02,0,.04,0,.05,0,.02,0,.05,0,.07.02h.06s.05,0,.08,0h.14c.2,0,.36-.08.48-.15.12-.08.19-.15.19-.15,0,0,.02.16.06.37,0,.07.03.15.05.23.03.12.06.25.11.38.07.21.16.41.26.54.06.08.13.16.2.24.04.06.09.11.14.17.02.03.05.05.07.08.14.16.28.31.42.4.09.06.18.11.27.11.07,0,.14,0,.21,0h.32s.07,0,.11-.02h.03s.05,0,.07-.02h.03s.04,0,.06-.02h.03s.05-.02.07-.03h0s.1-.07.15-.13c.08-.08.17-.19.26-.3s.17-.23.24-.33c.02-.03.07-.11.14-.22.02-.03.03-.06.05-.09.05-.09.12-.2.19-.33.35-.61.85-1.52,1.18-2.11.04-.08.08-.15.12-.22.13-.23.21-.38.21-.38l.66.58s-.13.13-.29.29c-.05.05-.1.1-.15.15-.02.02-.05.05-.07.07-.05.05-.09.09-.14.14-.03.03-.05.05-.08.08-.06.06-.11.11-.15.15-.1.1-.3.28-.45.49-.02.03-.04.05-.05.08-.07.1-.12.2-.13.3,0,.07,0,.14.04.19.2.31.75.88,1.32.9h.62c.05,0,.11,0,.16,0h.03c.05,0,.11,0,.16-.02h.01c.05,0,.1,0,.14-.02h.02c.05,0,.09-.02.13-.03h.02s.08-.02.11-.04h.02s.07-.03.09-.05c.27-.18.61-.56.79-.96.11-.25.23-.5.29-.73.03-.1.04-.19.05-.28v-.13c-.04-.35-.36-1.23-.36-1.23l1.16-.82s.23.34.45.53c.11.09.23.21.33.31.1.1.17.17.17.17,0,0-.15.14-.3.29l-.08.08s-.07.07-.1.1l-.09.09-.06.06c-.05.05-.13.12-.21.2-.04.04-.08.08-.12.12-.05.05-.09.11-.12.15-.02.03-.03.06-.02.09.03.12.59,1.01,1.31,1.18.08.02.16.03.24.04h.06c.07,0,.14.02.2.02h.27c.06,0,.12,0,.18,0h.02c.06,0,.12-.02.17-.03.01,0,.03,0,.04,0,.05,0,.1-.03.15-.05h0c.05-.02.09-.05.14-.07.01,0,.02,0,.03-.02l.12-.09c.08-.07.16-.14.23-.21.13-.12.24-.24.31-.39.05-.11.08-.23.09-.38,0-.1,0-.2-.02-.3-.04-.31-.16-.61-.29-.77-.05-.05-.09-.11-.13-.17-.13-.17-.24-.33-.24-.33,0,0,.07-.09.25-.22.05-.04.11-.08.17-.13.23-.16.58-.35,1.06-.55.06-.02.11-.04.17-.06.01,0,.02,0,.04,0,.05-.02.11-.03.16-.04h.02c.05,0,.1-.02.14-.02h.03c.05,0,.1,0,.15,0h.63l.6-1.22h-.11M22.75,59.78s.07-.02.1-.04c.04,0,.08-.03.12-.04.03,0,.06-.02.09-.04.04-.02.08-.03.11-.05.03,0,.06-.03.09-.04.04-.02.08-.03.11-.05.03,0,.06-.03.08-.04.04-.02.07-.03.11-.05.03,0,.05-.03.08-.04.04-.02.08-.04.11-.06.02,0,.05-.02.07-.04.04-.02.08-.04.12-.06.02,0,.04-.02.05-.03.06-.03.12-.06.17-.09.81-.44,1.57-.98,2.5-1.82.16-.14.31-.29.45-.44.14-.15.28-.3.4-.45.06-.08.12-.15.18-.22.12-.15.22-.3.32-.44.05-.07.1-.14.14-.21.31-.49.52-.93.6-1.21,0-.04.02-.08.03-.11.04-.21.02-.39-.03-.55-.02-.05-.04-.11-.06-.16s-.05-.1-.08-.15c-.03-.05-.06-.09-.09-.14-.05-.07-.1-.13-.15-.2-.02-.02-.03-.04-.05-.06-.1-.13-.26-.25-.45-.37-.19-.12-.42-.23-.67-.33-.16-.07-.34-.13-.51-.18-.04,0-.09-.03-.14-.03h-.05s-.07,0-.11-.02h-.83c-.07,0-.13,0-.2.02h-.04s-.11,0-.16.02h-.06s-.1,0-.15.02h-.05c-.06,0-.13.02-.19.03h-.03s-.1.02-.15.02h-.06s-.08,0-.12.02h-.05s-.1.02-.15.03h0s-.08.02-.12.02h-.04s-.05,0-.08.02h-.03s-.06,0-.08.02h0s-.12.03-.2.06c-.02,0-.04,0-.06.02-.04,0-.09.03-.14.04-.07.02-.15.05-.24.07-.08.03-.17.05-.26.08-.12.04-.23.07-.35.11-.06.02-.11.03-.16.05-.35.11-.62.19-.62.19,0,0,.29-.38.51-.61.22-.24.89-.79,1.35-1.17.46-.39,2.51-1.75,2.51-1.75,0,0-.14.58-.23.77-.02.05-.06.13-.11.23-.02.05-.05.1-.07.15-.02.05-.05.11-.08.16-.1.21-.19.39-.19.39,0,0,.05.05.14.09.05.03.11.05.19.07h.18s.03,0,.05-.02c0,0,.03,0,.04-.02.02,0,.04-.02.05-.02s.03,0,.04-.02c.02,0,.04-.02.06-.03,0,0,.03-.02.04-.02.02,0,.04-.03.06-.04,0,0,.03-.02.04-.03.02-.02.05-.03.07-.05,0,0,.02-.02.04-.03.04-.03.07-.06.11-.09s.08-.07.12-.12c.04-.05.08-.11.11-.18.07-.13.14-.29.2-.45.03-.08.06-.17.08-.25s.04-.15.06-.23c.02-.09.04-.18.06-.26,0-.04,0-.07.02-.11,0-.03,0-.07.02-.1,0-.06,0-.13,0-.19,0-.06,0-.12-.02-.17-.07-.34-.3-.61-.48-.77-.21-.19-.68-.35-1.05-.41-.05,0-.11-.02-.16-.02h-.03s-.06,0-.09.01h0s-.07.02-.12.03h-.02s-.09.03-.14.05h-.02s-.1.04-.16.06c0,0-.02,0-.03.01-.06.02-.12.05-.18.07,0,0-.02,0-.03.01-.06.03-.13.06-.19.08,0,0-.02,0-.03.01l-.21.09s-.02.01-.04.02c-.07.03-.14.07-.21.1,0,0-.02.01-.03.02-.07.04-.15.07-.22.11,0,0-.02.01-.03.02-.07.04-.15.08-.22.11,0,0-.02.01-.03.02-.07.04-.15.08-.22.12,0,0-.02,0-.03.01-.07.04-.15.08-.22.12,0,0,0,0-.02.01-.07.04-.15.08-.22.12h0c-.07.04-.14.08-.21.12h0c-.07.04-.13.08-.19.11h0c-.06.04-.12.07-.18.11-.93.57-1.97,1.59-2.63,2.36s-.84,1.75-.79,2.15c.05.39,1.17.86,1.32.97.02,0,.04.02.06.03h.07s.04,0,.06,0h.02s.05-.02.08-.04c0,0,.02,0,.02,0,.03-.02.06-.03.09-.05.04-.02.08-.04.12-.06.2-.09,1.28-.47,2.07-.73.26-.09.49-.16.64-.2.07-.02.16-.05.28-.08.04,0,.07-.02.11-.03.06,0,.12-.03.18-.05.11-.03.24-.06.37-.09.04,0,.08-.02.12-.03.08-.02.17-.04.25-.06s.17-.04.26-.06.17-.04.26-.06c.04,0,.08-.02.13-.03.08-.02.17-.04.25-.06s.16-.04.23-.05c.38-.08.68-.14.8-.16h.29s.05,0,.07,0c0,0,.03,0,.04,0,.02,0,.04,0,.06.02,0,0,.03,0,.04.02.02,0,.04.02.05.03,0,0,.02,0,.04.02.02,0,.04.02.05.03,0,0,.02,0,.03.02.02,0,.04.03.06.04,0,0,.02,0,.03.02.03.02.05.04.08.06.23.18-.11.65-.33.95-.12.16-.75.68-1.4,1.18-.19.15-.39.29-.57.43-.15.11-.29.21-.42.3-.2.14-.36.25-.48.32-.1.06-.24.14-.4.23-.09.05-.18.1-.28.15-.14.08-.3.16-.46.24-.25.12-.51.26-.79.39-.64.3-1.33.6-1.93.78-.1.03-.2.06-.3.08-.03,0-.06,0-.08.02-.07.02-.14.03-.2.04-.02,0-.05,0-.07,0-.08,0-.16.02-.24.03h-.46c-.06,0-.11,0-.16-.02h-.02s-.09-.02-.12-.03c0,0-.03,0-.04,0-.03,0-.06-.02-.09-.03,0,0-.02,0-.03,0-.03,0-.07-.03-.09-.04h0s-.05-.03-.07-.04c0,0,0,0-.02,0,0,0-.03-.02-.04-.03h0s-.02-.04-.03-.05c-.07-.16.38-.72.65-.97s1.61-1.07,1.82-1.18c.21-.11-.07-.34-.22-.46-.02,0-.04-.03-.07-.05-.17-.12-.53-.35-.83-.47-.05-.02-.1-.04-.14-.05-.02,0-.05,0-.08-.02h-.38s-.06,0-.08,0h-.06s-.06,0-.09,0c-.02,0-.04,0-.06,0-.03,0-.06,0-.09.02-.02,0-.04,0-.06,0-.03,0-.07,0-.1.02-.02,0-.03,0-.05,0-.05,0-.1.02-.14.03h0s-.1.02-.16.04c-.02,0-.03,0-.05,0-.03,0-.07.02-.1.03-.02,0-.04,0-.06,0-.03,0-.06.02-.09.02-.02,0-.04,0-.06,0-.03,0-.06.02-.09.02-.02,0-.04,0-.06,0-.03,0-.06.02-.09.02,0,0-.03,0-.04,0-.04,0-.07.02-.11.03s-.08.02-.11.03c-.56.15-2.1.57-2.51.86-.03.02-.05.04-.08.06-.05.04-.09.08-.13.12-.1.11-.17.22-.22.31-.02.04-.04.07-.05.11-.04.1-.06.16-.06.16l1.46,1.2s.61-.29.81-.39c.2-.09.66-.23.66-.23,0,0,0,.02,0,.06,0,.04,0,.09-.02.15v.1c0,.11,0,.23.05.35.1.32.16.56.79,1.14.35.33.74.56,1.25.71.11.03.24.06.36.09.32.07.69.11,1.13.12h.6s.09,0,.13,0c.04,0,.08,0,.11,0,.04,0,.09,0,.13-.02.04,0,.07,0,.11-.02.04,0,.08-.02.13-.02.04,0,.07-.02.11-.02s.08-.02.12-.03c.04,0,.07-.02.11-.03s.08-.02.12-.03c.04,0,.07-.02.11-.03s.08-.02.12-.04c.03,0,.07-.02.1-.03.04,0,.08-.03.12-.04M38.45,47.73h.22s.05-.01.07-.02h.03s.07-.02.11-.03c.18-.05.46-.14.46-.14,0,0,.26.69.36.93.05.12.12.23.19.32.02.02.04.04.06.06.04.04.08.07.11.09.02,0,.04.02.05.03.02,0,.04,0,.06.02h.46s.04,0,.06-.02c.02,0,.05-.04.07-.07,0,0,0-.02.02-.04.05-.11.1-.28.14-.43,0-.02,0-.05.02-.07.02-.06.03-.11.05-.15.08-.22.22-.68.22-.68,0,0,.27-.02.58-.05.08,0,.15-.02.23-.03.2-.03.39-.08.56-.13.03-.01.06-.02.09-.03.18-.06.2-.21.18-.36,0-.05-.02-.1-.03-.14-.05-.18-.27-.42-.57-.48-.24-.05-.81-.11-.81-.11,0-.08-.07-.98-.12-1.05,0-.02-.05-.03-.11-.05-.06-.02-.13-.03-.21-.05-.04,0-.08-.02-.12-.02-.06-.01-.13-.02-.19-.03-.02,0-.04,0-.06-.01-.04,0-.07-.01-.1-.02-.03,0-.06-.01-.09-.02h0s-.06-.01-.1-.02h-.02s-.07-.01-.1-.02h-.02s-.07-.01-.1-.02h-.02s-.07-.01-.1-.02h0s-.06,0-.09-.01h-.15s-.15.51-.26.92c0,.04-.02.08-.03.12-.04.15-.07.28-.09.34,0,.02,0,.03,0,.03,0,0-.93.1-1.13.14-.21.04-.37.18-.47.32-.11.14.14.42.21.52.06.1.37.53.53.54" style="fill: #fff;"/>
  <path d="M59.57,57.05c0-.22-.3-.39-.68-.39s-.68.18-.68.39.3.39.68.39.68-.18.68-.39h0Z" style="fill: #1d1e1b;"/>
  <path d="M59.54,55.5c-.29-.05-.56.09-.6.3s.16.43.45.47c.29.05.56-.09.6-.3s-.16-.43-.45-.47h0Z" style="fill: #1d1e1b;"/>
  <path d="M57.44,61.67c.1.38.56,1.88.63,2.3.06.42-.76.54-.94.77-.19.23-.16,1.01-.31,1.2-.26.33-1.06.29-1.51.17-.39-.1-.94-.49-1.47-.7-.35-.14-.63.22-1.04.1-.41-.13-1.21-.61-1.37-1.05s.07-1.31.07-1.31c0,0-1.46.74-2.25.78-.69.04-1.66-1.45-1.82-1.74-.16-.29-1.07-.82-1.15-1.26-.05-.26.43-1.07.81-1.54.23-.28.25-1.5.51-1.82s1.34-.06,1.34-.06c0,0-.85-.52-.5-1.42.16-.43.54-.52.6-.81s-.24-.56.04-.81,1.5-.93,2.14-.64c.63.29,1.62,1.16,1.62,1.16,0,0,.17-.9.38-.95.42-.09.93.16,1.21.26.28.1.81-.57,1.02-.65.73-.25,1.09,0,1.26.25.23.34.44,1.22.5,1.46.17.69-.71,1.09-.71,1.09l1.23-.61c.19-.09.42-.05.55.11h0c.12.15.09.36-.07.47l-1.73,1.23s3.03.44,3.28.49c.25.06-.2.82-.26,1.05-.06.23.42.8.61,1s-.27,1.01-.88,1.25c-.95.36-1.79.21-1.79.21h0v.02Z" style="fill: #1d1e1b;"/>
  <path d="M50.59,54.19c.49.27,1.06.58,1.56.98.21.17.32.36.26.62-.03.17-.05.35-.08.52-.07.4.07.75.3,1.08.15.21.25.43.3.68.05.23-.03.36-.29.38-.41.03-.82.07-1.23.11-.12,0-.26,0-.32.13-.06.14.06.23.17.3.25.19.49.39.75.57.2.14.27.32.23.54-.06.32-.09.65-.06.98,0,.13,0,.29.16.34.16.06.27-.07.35-.18.13-.16.25-.33.37-.51.16-.23.34-.29.61-.14.3.17.62.33.93.48.09.05.22.1.31,0,.1-.12-.01-.21-.09-.29-.14-.15-.29-.28-.42-.43-.25-.3-.23-.51.05-.79.3-.3.66-.55,1.04-.76.39-.22.79-.41,1.18-.63.26-.15.54-.18.83-.13.38.07.77.11,1.15.2.36.08.48.3.29.57-.34.47-.28.87.08,1.3.59.72.19,1.03-.57,1.25-.48.14-.97.05-1.46.02-.59-.04-.81.2-.61.73.17.48.3.96.39,1.46.05.25-.01.44-.29.55-.36.14-.56.39-.56.76,0,.05-.01.1-.02.15-.13.59-.41.73-.99.45-.25-.12-.49-.25-.71-.41-.23-.16-.46-.18-.72-.1-.11.03-.21.06-.32.1-.83.25-1.56-.3-1.46-1.11.06-.43.17-.85.23-1.27.03-.22.16-.51-.12-.65-.3-.14-.49.11-.66.29-.49.5-1.09.79-1.81.91-.37.07-.67-.03-.88-.3-.17-.21-.33-.44-.46-.68-.18-.35-.45-.6-.8-.81-.13-.08-.25-.17-.37-.26-.2-.16-.25-.35-.14-.58.14-.3.3-.58.54-.8.19-.17.26-.37.25-.61-.02-.3.03-.59.14-.88.16-.44.46-.6.95-.48.42.1.84.21,1.23.39.13.06.29.14.4.02s.04-.27-.04-.4c-.19-.3-.57-.39-.84-.59-.25-.18-.48-.36-.63-.62-.14-.26-.11-.49.15-.65.5-.3.63-.72.59-1.24-.06-.86.17-.99,1-.62.03,0,.06.03.16.07h0Z" style="fill: #fff;"/>
  <path d="M54.09,54.45c.47.22.53.21.95-.2.1-.1.2-.19.32-.27.19-.13.37-.1.53.07.36.38.52.83.58,1.32.04.35-.15.64-.42.87-.4.34-.81.67-1.22,1-.15.13-.35.25-.18.45.18.22.38.08.55-.04.76-.5,1.5-1.02,2.33-1.43.18-.09.41-.34.57-.16.11.13-.21.27-.36.37-.95.71-1.92,1.4-2.88,2.09-.3.22-.42.19-.67-.08-.37-.4-.66-.85-.94-1.3-.26-.41-.3-.85-.26-1.31.03-.39.07-.78.17-1.16.12-.46.24-.53.72-.33.05.02.1.04.23.1h-.02Z" style="fill: #fff;"/>
  <path d="M58.83,56.85c.13.07.23.17.16.29-.09.17-.27.19-.45.12-.14-.06-.22-.18-.12-.32.1-.15.27-.12.42-.08h-.01Z" style="fill: #fff;"/>
  <path d="M59.17,55.75c.09-.11.21-.15.33-.07.13.08.11.2.05.31-.06.1-.14.17-.26.1-.14-.08-.17-.2-.11-.34h-.01Z" style="fill: #fff;"/>
  <path d="M58.01,54.56c-.29-.05-.56.09-.6.3s.16.43.45.47c.29.05.56-.09.6-.3s-.16-.43-.45-.47h0Z" style="fill: #1d1e1b;"/>
  <path d="M57.64,54.82c.09-.11.21-.15.33-.07.13.08.11.2.05.31-.06.1-.14.17-.26.1-.14-.08-.17-.2-.11-.34h-.01Z" style="fill: #fff;"/>
  <path d="M55.61,27.71s2,.83,1.55.83-1.18.09-.74.76c.43.67,1.3,1.34,1.3,1.34,0,0-.94,1.36,1.22.9,0,0-.44.74,0,.7s.41-.52.79-.39c.37.13.46.48.32.92-.15.45,0,.36.27.8.28.44.49,1.14-.58,1.36-1.08.22-.85.52-.79.85s.46,1.7-.23,1.06-.34-2.81-.34-2.81c0,0-.45-.46-.16-.93.47-.76.12-1.11-.14-1.29-1-.67-.93.23-1.33-.29-.4-.52-.51-1.81-1.13-1.91-.62-.1-1.42.64-1.64-.19s.46-1.43.83-1.02.94.45,1,.13-.18-.83-.18-.83h-.02Z" style="fill: #afcaca;"/>
  <path d="M59.83,36.68c.13.02.31.14.43.27.13-.02.26-.04.39-.06-.11-.16-.2-.33-.27-.49-.33-.79-.55-1.13-.77-.91s-.1,1.15.22,1.18h0Z" style="fill: #afcaca;"/>
  <path d="M60.55,33.62c-.35-.15-.54,1.44-.54,1.44,0,0,.49,1.19,1.94,1.12,1.44-.07,1.46-.33,1.96,0s1.74.04,1.49-.33-.59-.15-.8-.14c-.21.01-.66.01-.73-.29s-.54-.15-.97-.22-2.35-1.59-2.35-1.59h0Z" style="fill: #afcaca;"/>
  <polygon points="42.64 43.35 42.64 43.34 42.63 43.35 42.64 43.35 42.64 43.35" style="fill: #0f1a2b;"/>
  <path d="M55.55,35.93s-.02.03-.02.04q-.08.2-.29.12c-.1-.04-.19-.02-.27.05-.15.14-.24.3-.16.49.08.2.25.3.48.31.06,0,.12,0,.17.03-.06.15-.06.35-.26.43l-.21.09c-.09.04-.11.09-.03.16.09.08.18.16.27.25.21.21.22.21.49.07.06.06.14.11.16.2.02.12-.07.25.06.36.12.1.33.11.43-.01.03-.04.06-.08.12-.08.34-.03.52-.31.39-.61,0-.01-.02-.03-.02-.04-.09-.18-.07-.22.15-.2.09,0,.14-.05.21-.07,0,.06-.03.16.02.19.07.04.11-.06.17-.09.08-.05.14-.12.17-.2.05-.11.14-.14.26-.14.35,0,.36,0,.44-.3.02-.08.04-.16.05-.24.02-.16-.02-.29-.19-.37-.15-.07-.23-.18-.21-.33.02-.15.17-.18.31-.2.08-.01.16-.03.18-.11.09-.27.24-.52.3-.8.19-.05.29-.21.43-.32.27-.22.45-.49.54-.81.03-.11.03-.22.18-.28.09-.04.11-.19.13-.3.01-.1.07-.13.18-.14.34-.02.46.08.46.4v.23c-.18.05-.37.07-.54.2-.2.16-.23.38-.33.58-.08.17,0,.32.05.48.04.12.1.23.15.35.04.09.03.15-.05.21-.15.12-.32.21-.48.32-.1.06-.22.06-.34.03-.09-.02-.14.02-.19.08-.05.07-.05.14.01.19.15.12.09.2-.02.31-.08.08-.14.18-.14.3,0,.4-.19.71-.49.99-.19.17-.31.45-.03.71.2.18.35.39.35.68,0,.22-.06.41-.21.59-.07.08-.11.11-.17,0-.05-.09-.1-.19-.21-.24-.03-.01-.05-.01-.08,0-.04-.01-.07-.02-.11-.03-.28-.11-.5-.03-.68.18-.13.14-.25.16-.38.08-.11-.07-.14-.15-.06-.26.03-.04.08-.07.08-.13-.17-.03-.27.03-.29.19-.01.09,0,.18.03.27-.13.02-.24.07-.29.19-.02-.01-.03-.03-.05-.04-.15-.09-.11-.26-.18-.38.14-.14.14-.27.02-.41-.13-.14-.23-.31-.47-.33-.12,0-.23.03-.34.04-.06,0-.11.04-.18.02-.05-.02-.1-.04-.17,0-.21.13-.39.31-.51.5-.14.22-.31.37-.56.45-.1-.04-.19-.09-.31-.14.11-.07.22-.13.31-.21.24-.18.27-.41.08-.64-.04-.05-.08-.04-.12-.02-.13.04-.26.04-.39.02-.09-.02-.13-.06-.11-.15.02-.08.04-.13.15-.09.03.01.08,0,.11-.02.1-.1.22-.19.29-.31.03-.05.04-.11.02-.16-.05-.14.02-.23.13-.32.34-.27.52-.62.6-1.03.09-.49,0-.96-.13-1.42-.06-.21-.11-.42-.17-.63,0,0,.01-.01.01-.02.07,0,.12.04.15.1.12.18.24.35.39.52v.02-.02c.04-.26-.06-.5-.16-.73-.12-.28-.3-.52-.51-.76-.04-.05-.1-.1-.03-.16.06-.05.13-.05.19,0,.03.02.06.04.08.07.18.19.36.38.53.58.14.17.24.36.31.56.13.36.17.74.26,1.11h0l.09-.05Z" style="fill: #006a80;"/>
  <path d="M53.95,32.23c-.06.09-.06.18-.06.27,0,.32.02.63.39.79.03.01.05.04.08.01.02-.02,0-.05-.01-.07-.07-.1-.14-.19-.21-.29-.08-.1-.12-.2-.11-.33v-.33s0-.06-.04-.07h-.05v.02ZM54.15,34.14c-.16.12-.19.29-.06.45.25.31.53.58.92.73.16.06.3.18.49.15.05,0,.11.02.12-.05,0-.06-.05-.05-.09-.07-.17-.07-.35-.13-.51-.21-.28-.13-.52-.28-.7-.53-.11-.15-.1-.33-.17-.48h0ZM55.38,29.1c.03.72,1.23,1.51,1.82,1.43-.3-.17-.59-.32-.87-.49-.3-.17-.55-.38-.77-.62-.08-.09-.11-.21-.17-.32h-.01ZM50.66,26.62c.27.15.52.28.76.41.51.27,1.03.55,1.54.82.19.1.39.21.58.31.04.02.08.05.12.01.04-.03,0-.06-.03-.09-.1-.2-.28-.35-.43-.52-.25-.27-.58-.46-.91-.63-.29-.15-.61-.26-.95-.31-.22-.03-.44-.1-.69,0h0ZM49.88,34.24h.29c.09.08.2.06.3.06.43-.02.8-.18,1.12-.45.23-.19.35-.42.33-.7,0-.12.04-.21.09-.32.09-.17.26-.24.41-.33.36-.21.5-.35.33-.73-.03-.06-.08-.12-.12-.18-.21-.34-.51-.62-.78-.92-.09-.1-.17-.06-.2.06-.02.06-.05.12-.13.14-.16.04-.57-.13-.61-.26-.06-.22-.23-.38-.38-.54-.25-.28-.09-.71.3-.78.07-.01.11-.04.16-.08.2-.19.26-.61.09-.82-.29-.36-.67-.62-1.15-.74-.13-.03-.28.03-.39-.03-.16-.1-.33-.11-.5-.12-.31-.02-.58-.11-.85-.23-.02-.01-.05-.03-.05-.05-.02-.19-.11-.38,0-.56.06-.1.06-.2,0-.27-.22-.25-.47-.48-.82-.58-.2-.06-.4-.1-.6-.14-.13-.03-.25-.03-.38.02-.1.04-.22.05-.34.05-.15,0-.24-.12-.22-.31.02-.19,0-.35-.12-.52-.11-.15-.04-.37.12-.48.03-.02.06-.04.1-.04.57-.02,1.15.03,1.71.12.7.1,1.37.3,2.04.53.32.11.66.2.97.33.04.02.09.03.13,0,.05-.04,0-.07-.02-.1-.07-.15-.22-.24-.35-.35-.27-.22-.59-.36-.92-.49-.29-.12-.6-.2-.82-.42-.05-.05-.1-.09-.08-.17.02-.11-.05-.19-.16-.23-.3-.12-.61-.19-.91-.3-.53-.19-1.09-.31-1.65-.42-.47-.1-.95-.2-1.42-.31-.04,0-.1,0-.1-.06s.06-.07.11-.07h.36c.39.02.77.1,1.15.14.35.04.7.08,1.04.14.35.06.68.17,1.03.25.37.09.76.16,1.11.32.18.08.38.13.57.19.29.09.58.2.86.31.36.14.68.34,1.03.49.16.07.32.16.47.25.42.25.87.43,1.33.59.05.02.13.04.17-.01.05-.07-.04-.12-.08-.14-.19-.09-.32-.25-.48-.37-.09-.07-.19-.12-.24-.24-.07-.16.08-.24.12-.35.68.28,1.32.62,1.95.98.75.42,1.46.88,2.13,1.4.11.09.2.2.28.32.07.1.1.21.07.32-.09.29.03.49.26.67.22.17.41.37.6.57.15.16.17.35.15.54-.02.15-.13.24-.29.27-.16.04-.28,0-.38-.12-.03-.04-.05-.08-.07-.12-.2-.37-.64-.55-1.07-.44-.49.12-.65.59-.35,1.04.24.37.62.55,1.06.63.22.04.43.07.64.13.24.08.28.14.26.37-.01.11.06.16.13.22.23.21.33.45.27.74-.05.26-.21.33-.45.2-.04-.02-.08-.05-.12-.08-.15-.09-.22-.07-.31.08-.08.14-.06.29,0,.43.06.17.13.33.18.51s-.02.3-.17.35c-.12.04-.22.05-.27-.1-.02-.06-.05-.11-.08-.17-.16.11-.21.26-.12.44.05.11.12.21.17.31.06.12.08.24-.02.36-.1.11-.22.16-.38.12-.13-.03-.26-.04-.38-.12-.13-.09-.26-.04-.37.06-.2.18-.44.13-.56-.1-.03-.06-.03-.09.05-.1.07-.01.14-.05.21-.05.2,0,.25-.13.27-.28.04-.25-.11-.49-.38-.62-.17-.08-.35-.13-.54-.14-.06,0-.11,0-.12-.09-.05-.3-.15-.39-.38-.38-.26.02-.51.25-.52.49,0,.11.02.2.11.29.15.14.29.27.46.38.34.21.31.52-.04.71-.22.11-.28.27-.18.49.11.25.31.43.59.52.18.05.37.1.56.14.52.12.77.59.56,1.04-.11.23-.29.29-.53.17-.07-.03-.13-.07-.2-.11-.11-.07-.15-.01-.15.08,0,.1.05.2.09.29.05.11.09.23.07.35-.02.18-.12.24-.31.18-.01,0-.02,0-.03-.01q-.2-.07-.24.13c-.03.16-.07.31-.2.44-.26.25-.75.27-1,.04-.09-.09-.15-.16,0-.24h.15c.11.05.18-.01.24-.08.05-.06.1-.12.14-.18.06.08.12.07.19.01.17-.13.3-.28.44-.43.06-.06.05-.11-.05-.13-.13-.03-.23-.1-.22-.24v-.12c-.04-.23-.2-.37-.4-.5-.13-.08-.28-.15-.27-.33,0-.07.02-.15.03-.22.02-.2-.04-.29-.24-.37-.05-.02-.1-.04-.15-.06-.34-.14-.38-.2-.26-.52.16-.42,0-.74-.33-1.02-.13-.11-.29-.18-.48-.11-.19.06-.18.2-.2.34-.03.16-.09.32-.23.44-.05.05-.09.1-.08.17-.08.15-.02.26.1.36.06.05.14.09.21.14.16.11.21.29.14.49-.06.16-.19.18-.34.16-.04,0-.07,0-.1.04-.18.24-.13.56.14.72.15.09.26.2.32.35.05.12.02.24.05.36h0c-.19.14-.37.13-.55-.04-.27-.25-.02,0-.04-.02-.05.06-.04.13-.04.2,0,.25-.02.51-.02.76,0,.15-.06.27-.21.31-.16.05-.34.05-.48-.06-.07-.06-.08-.14-.06-.22h.06c.13.11.23.09.32-.05.02-.03.06-.05.09-.07.1-.07.12-.17.12-.28-.02-.25-.12-.46-.32-.64-.11-.1-.16-.23-.14-.37.06-.38-.07-.7-.36-.98-.24-.23-.53-.29-.85-.29-.13,0-.22.09-.24.21-.01.07,0,.13.02.2.01.05.02.12-.06.14-.07.02-.1-.03-.12-.08-.05-.11-.12-.22-.21-.31-.03-.03-.05-.09-.11-.08-.07.01-.1.08-.1.13,0,.11-.02.22.03.33.03.08,0,.15-.07.2-.06.05-.14.07-.2.04-.08-.04-.03-.12-.03-.18.02-.21.04-.41.06-.62.01-.16.01-.34-.12-.46-.18-.16-.32-.35-.51-.49-.07-.06-.08-.09-.03-.16.05-.08.11-.05.16-.02.15.1.31.19.44.31.27.24.62.27.87.05h0l.02-.04Z" style="fill: #fefefe;"/>
  <path d="M47.88,22.23c-6.54-1.14-11.83-.59-12.76-.69-.51.29,9.03.78,8.6,1.16-.15.14-4.54-.24-4.67-.08.11.02,4.47.55,4.58.58.05.01.1.01.12.07.03.01.07.04.1.04.35.01.61.21.91.34-.21.05-.42.02-.63,0-.36-.01-.71-.01-1.07-.01-.03,0-2.84-.03-2.88-.04-.25.52,4.59.53,4.7,1.08.04.2-4.83-.29-3.04-.06.45,0,2.88,1.09,3.28,1.27,1.73.8,3.18,1,2.37,1.15-1.69.3-3.65-.5-4.42-.67-.24-.05-.32.87,4.62,1.65.49.08.81.31,1.02.69.13.23,1.51.67,1.4.92-.06.14-.16.22-.33.18-.09-.02-.09.02-.08.08,0,.09.06.14.14.17.04.02.09.04.14.04.26,0,.4.13.52.33.14.22.14.42-.05.61-.07.07-.15.14-.23.2-.06.04-.14.1-.2.03-.05-.06-.01-.13.05-.19.07-.07.14-.14.22-.21-.05,0-.08.03-.11.06-.08.09-.18.12-.3.07.08.06.03.13,0,.19-.06.21.06.34.3.3.19-.03.29.01.39.16.11.17.21.33.32.5.09-.07.12-.17.19-.25,0,0,0-.01.01-.01-.05-.08-.11-.16-.2-.21-.04-.02-.09-.05-.08-.1,0-.04.05-.04.08-.05.07-.02.13,0,.15.06.04.07.09.14.16.19.18-.04.33.03.41.16.12.19.3.33.49.46.11.08.05.13-.03.16-.08.03-.16.02-.24,0-.15-.02-.29-.09-.43-.13.08.3.06.59.02.89-.04.32-.29.55-.61.59-.29.03-.44-.05-.57-.29-.03-.05-.05-.1-.08-.15-.2.17-.22.34-.05.53.07.08.15.15.06.26.09.08.2.06.3.06.43-.02.8-.18,1.12-.45.23-.19.35-.42.33-.7,0-.12.04-.21.09-.32.09-.17.26-.24.41-.33.36-.21.5-.35.33-.73-.03-.06-.08-.12-.12-.18-.21-.34-.51-.62-.78-.92-.09-.1-.17-.06-.2.06-.02.06-.05.12-.13.14-.16.04-.57-.13-.61-.26-.06-.22-.23-.38-.38-.54-.25-.28-.09-.71.3-.78.07-.01.11-.04.16-.08.2-.19.26-.61.09-.82-.29-.36-.67-.62-1.15-.74-.13-.03-.28.03-.39-.03-.16-.1-.33-.11-.5-.12-.31-.02-.58-.11-.85-.23-.02-.01-.05-.03-.05-.05-.02-.19-.11-.38,0-.56.06-.1.06-.2,0-.27-.22-.25-.47-.48-.82-.58-.2-.06-.4-.1-.6-.14-.13-.03-.25-.03-.38.02-.1.04-.22.05-.34.05-.15,0-.24-.12-.22-.31.02-.19,0-.35-.12-.52-.11-.15-.04-.37.12-.48.03-.02.06-.04.1-.04.57-.02,1.15.03,1.71.12.7.1,1.37.3,2.04.53.32.11.66.2.97.33.04.02.09.03.13,0,.05-.04,0-.07-.02-.1-.07-.15-.22-.24-.35-.35-.27-.22-.59-.36-.92-.49-.29-.12-.6-.2-.82-.42-.05-.05-.1-.09-.08-.17.02-.11-.05-.19-.16-.23-.3-.12-.61-.19-.91-.3-.53-.19-1.09-.31-1.65-.42-.47-.1-.95-.2-1.42-.31-.04,0-.1,0-.1-.06s.06-.07.11-.07h.36c.39.02.77.1,1.15.14.35.04.7.08,1.04.14.35.06.68.17,1.03.25.37.09.76.16,1.11.32.18.08.38.13.57.19.29.09.58.2.86.31.36.14.68.34,1.03.49.16.07.32.16.47.25.42.25.87.43,1.33.59.05.02.13.04.17-.01.05-.07-.04-.12-.08-.14-.19-.09-.32-.25-.48-.37-.09-.07-.19-.12-.24-.24-.07-.16.08-.24.12-.35-.04-.02-.08-.05-.13-.07-.69-.34-1.42-.61-2.15-.85-.89-.29-1.74-.71-2.67-.87h0l-.02-.02Z" style="fill: #a6d9e5;"/>
  <path d="M60.35,35.22c.23.22.33.23.59.06.16-.1.29-.06.32.12.03.17.05.34.06.51.02.24.07.47.18.68.15.27.41.4.72.46.23.04.44.12.62.26.25.2.29.43.14.69-.05.09-.12.18-.18.27-.32.52-.1,1.05.53,1.24.23.07.47.13.68.27.29.19.43.47.5.78.04.19-.09.36-.28.41-.21.06-.36-.01-.42-.21-.01-.04-.02-.09-.03-.13,0-.02,0-.05-.04-.06-.04,0-.06.02-.07.05-.02.04-.04.08-.05.13-.09.37-.08.73.27,1,.08.06.15.14.18.23.06.16,0,.28-.16.39-.32.2-.34.26-.26.61.04.18.06.36-.1.51-.09.09-.2.12-.33.05-.09-.05-.14-.24-.1-.33.02-.05.07-.04.11-.05.18-.06.22-.13.17-.3-.08-.3-.38-.52-.68-.49-.18.02-.24.08-.2.25.04.19.06.38-.05.56-.16.28-.63.44-.89.3-.1-.05-.13-.1-.05-.19.04-.05.09-.09.13-.13.14-.13.14-.21.01-.35-.11-.12-.25-.2-.4-.27-.11-.05-.16-.1-.17-.2,0-.05-.04-.1-.05-.16.04,0,.1.02.13,0,.12-.08.22-.02.32.02.07.03.16.05.23.08.19.08.31-.01.43-.13.19-.17.19-.39.15-.61-.02-.12-.06-.25-.07-.37-.03-.21,0-.42.02-.63.05-.37-.22-.58-.53-.75-.21-.11-.41.25-.47.26-.06.02-.09-.02-.13-.05-.11-.13-.21-.26-.18-.44.01-.1-.02-.19-.04-.28-.08-.27-.31-.44-.53-.62-.13-.1-.25-.22-.33-.36-.19-.34-.17-.69-.04-1.04.03-.08.03-.12-.05-.17-.14-.09-.26-.21-.39-.32-.07-.06-.09-.14-.05-.22.04-.1.13-.03.19-.03.09-.01.15.05.21.11.08.07.18.1.27.05.08-.03.11-.12.1-.19-.05-.32-.07-.64-.07-.96,0-.11-.01-.23.11-.3h.02Z" style="fill: #fefefe;"/>
  <path d="M60.35,35.22c-.12.07-.11.19-.11.3,0,.32.01.64.07.96.01.08-.02.16-.1.19-.1.04-.2.01-.27-.05-.06-.05-.12-.12-.21-.11-.06,0-.14-.07-.19.03-.04.09-.02.16.05.22.13.11.25.23.39.32.08.06.08.09.05.17-.13.35-.15.7.04,1.04.08.14.2.25.33.36.22.17.45.34.53.62.03.09.06.19.04.28-.03.18.07.31.18.44.03.04.07.07.13.05.05-.02.26-.37.47-.26.31.17.58.38.53.75-.03.21-.05.42-.02.63.02.12.05.25.07.37.04.22.03.43-.15.61-.12.11-.24.2-.43.13-.07-.03-.16-.05-.23-.08-.1-.04-.2-.1-.32-.02-.03.02-.08,0-.13,0-.18-.19-.4-.29-.68-.24-.07.01-.07-.03-.06-.08.02-.07-.02-.11-.09-.14-.05-.02-.08,0-.12.02-.07.05-.05.11-.02.16.08.15.14.3.05.46-.04.07-.08.16-.19.14-.11-.01-.17-.08-.2-.18-.01-.04-.02-.09-.03-.13,0-.01,0-.03-.03-.03v.03c-.05.04-.1.08-.11.14-.02-.02-.04-.04-.07-.06,0-.02,0-.05.02-.07.21-.39-.08-1.01-.44-1.24-.22-.14-.29-.35-.37-.56-.04-.11-.04-.24.07-.32.11-.09.21.01.32.05.01.1-.06.19,0,.29-.04.12.05.19.14.24.09.05.19.04.27-.03.14-.12.22-.27.25-.44h0l.04-.04c.02-.05.03-.1.05-.16.08.02.16.04.23.07.38.13.48.41.26.73-.06.08-.11.16-.16.25-.13.22-.13.23.13.32.15.05.29.17.48.13.09-.05.12.08.21.06.16.04.39-.15.4-.32.02-.25-.18-.39-.34-.55-.11-.11-.29-.1-.46-.02.02-.12.04-.23,0-.33-.08-.18-.22-.32-.38-.43-.21-.14-.21-.13-.1-.35.06-.13.16-.24.12-.4-.07-.28-.35-.47-.71-.47-.17,0-.34.02-.51,0-.22-.03-.26-.14-.2-.44.04-.2.18-.12.29-.1.13.02.24,0,.33-.09.19-.17.22-.45.11-.67-.24-.45-.64-.67-1.17-.73-.27-.03-.55-.06-.82-.09-.1-.01-.2-.06-.21-.14,0-.06.11-.07.18-.07.18,0,.18-.1.17-.22,0-.03,0-.05-.01-.07-.07-.11-.04-.16.08-.21.21-.09.25-.21.18-.41-.07-.23-.2-.43-.41-.58-.3-.21-.63-.26-.88-.12h-.05c-.12.03-.25.04-.33-.03-.06-.05.03-.16.05-.24.04-.11.11-.23,0-.34.03-.08.08-.1.17-.05.12.07.23.15.38.17.22.02.39-.07.55-.19.14.19.23.42.41.59.07.07.32.13.38.09.08-.05.1-.25.04-.36-.09-.17-.27-.28-.41-.41-.12-.11-.13-.14,0-.24.11-.09.22-.18.34-.27.42-.18.78-.09,1.03.24.05.07.09.14.03.22-.07.09-.15.06-.23.02-.07-.03-.13-.05-.2-.07-.05-.02-.08,0-.11.03s-.03.06-.01.1c.04.06.07.12.12.18.2.29.11.69-.23.86-.1.05-.14.12-.11.23.04.12.07.23.1.35.08.38-.12.61-.54.63-.04,0-.1-.04-.11.02,0,.05.03.09.09.11.34.14.81-.16.79-.5,0-.05,0-.1-.01-.15-.07-.3-.03-.56.25-.75.08-.06.08-.14.07-.22-.02-.12-.03-.25-.04-.38.07,0,.1.05.13.08.17.16.43.23.62.15.21-.1.32-.25.3-.48,0-.08-.03-.17.07-.22.09-.04.18,0,.26.05.24.13.28.33.14.64-.03.06-.07.13-.11.18-.1.13-.15.27-.12.43h0l-.04.02Z" style="fill: #a6d9e5;"/>
  <path d="M61.46,36.52c-.32-.02-.24-1.37-.57-1.39-.02-.16.13-.17.24-.2.51-.11.74-.48.57-.93-.15-.37-.26-.74-.11-1.15.07-.22,0-.43-.22-.56-.16-.09-.3-.02-.44.02-.23.06-.26.04-.26-.18,0-.15-.05-.19-.19-.17-.52.06-.81-.08-.99-.55-.05-.13-.03-.24.09-.32.11-.07.08-.13,0-.21-.24-.26-.48-.53-.72-.79-.06-.07-.11-.14-.15-.21-.17-.32-.01-.7.42-.77.06-.01.13-.03.18-.08.4.32.77.67,1.14,1.01.51.46.99.94,1.6,1.29.23.13.47.25.71.34.52.2.84.56.96,1.07.08.33-.12.52-.49.47-.04,0-.08-.02-.11-.02-.21-.03-.42-.05-.55.14-.15.2-.15.43-.02.65.1.16.25.24.44.29.29.08.4.21.41.46,0,.2-.09.33-.29.39-.18.05-.26,0-.39-.19,0-.01-.02-.02-.06-.04-.03.17.15.35.06.59-.16.39-.27-.41-.74-.4-.29,0-.81.33-.51,1.44h0Z" style="fill: #fefefe;"/>
  <path d="M59.36,33.1c.06-.04.11-.1.14-.17.13-.33-.02-.6-.29-.79-.05-.04-.13-.09-.19-.04-.06.05-.05.13-.01.2.01.02.03.04.04.07.11.2.14.41.07.63-.02.06-.06.14,0,.18.07.04.13-.02.19-.05.02,0,.04-.02.05-.04h0ZM59.29,29.05s-.11.06-.18.08c-.43.07-.58.46-.42.77.04.08.09.15.15.21.24.26.48.53.72.79.07.08.1.13,0,.21-.12.08-.14.19-.09.32.18.47.47.6.99.55.14-.02.19.02.19.17,0,.22.04.24.26.18.15-.04.28-.11.44-.02.22.12.3.34.22.56-.14.41-.03.77.11,1.15.17.45-.06.81-.57.93-.11.02-.25.03-.24.2-.04.02-.08.05-.13.07-.08.04-.15.01-.21-.04-.06-.06-.02-.12.02-.16.04-.05.09-.09.14-.13.25-.22.27-.59.04-.83-.07-.08-.14-.15-.22-.23-.19-.2-.48-.2-.67,0-.04.04-.05.07-.03.12.02.06.03.13.03.19.01.11-.02.2-.13.26-.11.06-.22.03-.33-.03-.1-.06-.1-.13-.02-.21.23-.21.23-.31,0-.53-.08-.07-.16-.14-.23-.22-.22-.23-.7-.29-.99-.1.01-.06.02-.11.03-.17.06-.01.12-.03.17-.04.45-.1.65-.46.46-.85-.02-.04-.02-.08-.08-.08-.07,0-.05.06-.05.09-.02.19-.1.36-.28.46-.11.07-.24.11-.36.16,0-.26-.14-.49-.23-.72-.02-.05-.04-.09-.05-.14-.01-.04-.05-.08-.01-.11.05-.04.09.01.13.03.05.02.09.06.14.08.12.06.22.06.35,0,.32-.14.42-.38.4-.68,0-.09-.06-.16-.1-.24-.11-.23-.25-.45-.34-.7-.08-.22-.26-.42-.55-.48-.33-.07-.67-.1-.99-.23-.29-.11-.49-.29-.55-.58-.05-.24.13-.46.39-.49.32-.04.59.11.73.41.17.37.59.45.93.22.26-.18.28-.4.22-.66-.01-.05-.06-.11,0-.14.04-.02.08.04.12.07.22.18.44.37.66.55h0v-.02Z" style="fill: #a6d9e5;"/>
  <path d="M49.88,34.24c-.26.22-.6.19-.87-.05-.13-.12-.29-.21-.44-.31-.05-.03-.11-.07-.16.02-.04.07-.04.11.03.16.19.15.33.33.51.49.13.12.13.29.12.46-.02.21-.04.41-.06.62,0,.06-.05.14.03.18.06.03.14,0,.2-.04.07-.05.11-.13.07-.2-.05-.11-.03-.22-.03-.33,0-.05.03-.11.1-.13.06-.01.08.05.11.08.09.09.16.2.21.31.02.05.05.1.12.08.08-.02.07-.08.06-.14s-.03-.13-.02-.2c.02-.13.11-.21.24-.21.32,0,.61.06.85.29.29.28.41.6.36.98-.02.14.03.27.14.37.2.18.3.39.32.64,0,.11-.01.21-.12.28-.03.02-.07.04-.09.07-.09.13-.19.16-.32.05-.01-.01-.04,0-.06,0-.03-.09.02-.13.1-.16.12-.06.25-.13.2-.29-.05-.15-.17-.35-.38-.35-.11,0-.23,0-.27-.12-.03-.1-.02-.2.12-.25.16-.05.21-.16.13-.3-.09-.16-.23-.28-.43-.33-.26-.06-.45.04-.53.3-.06.18-.08.37-.12.55-.02.11-.06.23-.13.32-.12.16-.41.23-.59.15-.09-.04-.05-.09-.02-.13.12-.17.17-.35.11-.55,0-.38-.33-.68-.74-.5-.03.02-.07.03-.1.04-.08.03-.17.07-.24,0s-.09-.16-.05-.26c.22-.06.54-.37.55-.55.02-.29-.17-.62-.43-.73-.12-.05-.21-.03-.29.06-.07.08-.11.17-.2.24-.1.09-.21.1-.31,0-.08-.07-.15-.07-.24-.03-.05.02-.11.02-.16.05-.38.19-.91-.15-.89-.56,0-.12.09-.2.16-.3.04.09.07.16.11.23.15.25.5.29.77.16.29-.15.29-.37.26-.61,0-.05,0-.09.04-.12.05-.04.08.01.11.03.09.07.17.13.21.23.03.07.07.06.12.02.14-.14.3-.28.22-.49-.08-.22-.23-.38-.49-.43-.15-.03-.3-.06-.45-.1-.27-.08-.4-.41-.26-.64.12-.19.28-.21.42-.03.2.27.46.44.82.48.09,0,.17,0,.26-.01-.02.05-.03.1-.05.16-.03.1-.01.16.12.13h.08c.11.17.28.3.36.49.01.03.03.04.06.02.04-.03.12-.07.1-.12-.06-.18.07-.25.2-.34.4-.27.43-.62,0-.97.09-.1.17-.03.23.03.13.13.26.25.3.43.02.08.05.1.15.06.36-.15.57,0,.55.36v.09c-.03.08-.02.19-.12.22-.1.03-.14-.07-.21-.12-.15-.11-.28-.27-.52-.19-.17.06-.27.28-.23.5.04.18.1.36.14.55.02.09.11.1.17.16h0l-.02.05Z" style="fill: #a6d9e5;"/>
  <path d="M57.03,37.41c0,.32-.26.54-.64.55-.18,0-.36.05-.54.09-.06.01-.13.03-.1.12.03.08.06.1.15.09.25-.02.49,0,.74,0,.18,0,.32.11.44.23.15.15.3.31.45.46.05.05.08.13.16.1.06-.02.1-.09.11-.16,0-.08-.03-.16-.11-.19-.12-.04-.19-.13-.28-.21-.04-.04-.07-.1-.03-.15.03-.05.09-.02.14-.02.13,0,.26.03.39.07.05.02.11.03.15-.03s-.02-.11-.07-.14c-.06-.04-.12-.07-.17-.12-.08-.1-.1-.22,0-.31.22-.21.46-.37.81-.37.42,0,.76.13,1.02.43.1.11.24.17.39.16.28,0,.52.06.73.23.09.07.16.15.14.27,0,.04-.02.07,0,.11.05.15,0,.23-.18.25-.02,0-.03.03-.05.04-.09-.04-.08-.1-.06-.18.04-.12.07-.26-.09-.33-.15-.07-.39-.13-.53.02-.07.08-.16.16-.28.1-.1-.05-.17-.12-.12-.25.07-.14.02-.25-.15-.29-.19-.05-.38-.04-.56.06-.23.13-.28.33-.13.56.1.16.23.31.35.46.07.1.14.19.16.31.04.19-.1.43-.29.5-.09.03-.1-.03-.12-.08-.05-.19-.16-.35-.36-.45-.3-.27-.76-.24-.9.16-.01.03-.02.07-.04.1-.03.08-.06.16-.17.17-.11,0-.19-.05-.24-.15.1-.18.07-.62-.06-.75-.22-.22-.61-.31-.88-.21-.12.05-.17.12-.15.24.02.1.06.19.06.3,0,.13-.07.21-.2.21-.11,0-.15.05-.19.14-.02.05-.06.09-.07.14-.11.39-.74.51-1.05.22-.09-.09-.09-.19-.13-.31.1.03.18.07.26.09.3.07.58-.14.65-.41.08-.3-.09-.45-.31-.6-.05-.03-.07-.06-.06-.11,0-.06.06-.05.1-.05.11-.01.22-.02.33.02.08.03.1,0,.09-.07-.01-.19-.02-.39-.24-.48-.22-.1-.45-.11-.67.03-.13.08-.25.16-.39.23-.25.13-.6,0-.69-.26-.07-.21.03-.33.27-.3.35.05.67,0,.94-.22.07-.05.11-.12.16-.18.03.05.06.09.09.14.06.09.12.12.18,0,.01-.02.04-.03.06-.05.21.04.43.02.63.1.03.01.05,0,.06-.03,0-.05.03-.13-.03-.15-.19-.08-.15-.22-.13-.36.06-.45-.19-.71-.76-.67-.01-.13.09-.14.18-.14.19,0,.38,0,.54.09.08.04.12.04.15-.06.13-.34.38-.39.66-.12.02.02.05.04.07.07.05.07.14.14.09.23-.04.09-.15.05-.24.06-.19.03-.41,0-.5.22-.07.15.03.38.24.5.17.1.35.18.53.28.09.05.16,0,.24,0h.05Z" style="fill: #a6d9e5;"/>
  <path d="M48.21,35.85c-.04.1-.03.19.05.26.07.07.16.03.24,0,.04-.01.07-.03.1-.04.41-.18.75.11.74.5-.06-.06-.12-.12-.19-.17-.17-.13-.35-.16-.55-.08-.06.02-.12.05-.18.08-.3.14-.57.02-.62-.3-.02-.12.06-.22.21-.25h.2Z" style="fill: #fefefe;"/>
  <path d="M49.23,31.73c-.03.15-.09.3.05.43-.13.05-.25.09-.38.13-.1.03-.11-.06-.15-.11-.06-.06-.04-.13.01-.19.13-.13.3-.19.46-.28h0v.02Z" style="fill: #a6d9e5;"/>
  <path d="M51.18,42.46c.13-.03.19.06.25.14-.1-.03-.17-.09-.25-.14h0Z" style="fill: #286898;"/>
  <path d="M52.36,43.46c.07,0,.08.06.13.09v.09c-.04-.06-.08-.12-.12-.18h0Z" style="fill: #286898;"/>
  <path d="M51.02,42.38c.08-.05.11.02.14.06-.05,0-.1-.03-.14-.06h0Z" style="fill: #286898;"/>
  <path d="M44.9,30.38s.05-.02.09-.04c0,.07-.06.05-.09.05v-.02h0Z" style="fill: #4db3dd;"/>
  <path d="M50.89,40.85v.05h-.02s.01-.03.02-.05h0Z" style="fill: #286898;"/>
  <path d="M46.02,32.89s.04-.02.06-.03h0s-.04.02-.06.03h0Z" style="fill: #286898;"/>
  <path d="M54.44,43.76s-.06.02-.09,0h.09Z" style="fill: #286898;"/>
  <polygon points="42.64 43.35 42.63 43.35 42.64 43.34 42.64 43.35 42.64 43.35" style="fill: #286898;"/>
  <path d="M54.61,43.71l.04.04s0,.02-.01.02c-.03-.01-.03-.04-.03-.06h0Z" style="fill: #286898;"/>
  <path d="M40.61,46.29s0,.02,0,.03h0v-.03h0Z" style="fill: #286898;"/>
  <polygon points="41.36 46.69 41.37 46.7 41.37 46.69 41.36 46.69 41.36 46.69" style="fill: #286898;"/>
  <path d="M47.12,30.97s-.02,0-.02.01c0-.03.01-.01.02,0h0Z" style="fill: #a6d9e5;"/>
  <path d="M47.17,30.98s-.04.01-.05-.01h0s.03,0,.05-.01v.03h0Z" style="fill: #a6d9e5;"/>
  <path d="M55.47,34.07s-.02-.02-.02-.04c0,.01.01.02.02.04h0Z" style="fill: #286898;"/>
  <path d="M55.21,44.36v.02-.02h.01-.01Z" style="fill: #4db3dd;"/>
  <path d="M52.07,34.18c-.01-.07.03-.13.08-.17.13-.12.2-.28.23-.44.02-.14.02-.28.2-.34.19-.06.35,0,.48.11.32.28.48.6.33,1.02-.12.32-.07.39.26.52.05.02.1.04.15.06.2.08.26.17.24.37,0,.07-.03.15-.03.22-.01.18.14.25.27.33.19.13.35.27.4.5v.12c0,.14.09.21.22.24.11.02.11.07.05.13-.14.15-.28.3-.44.43-.07.05-.13.07-.19-.01.07-.19.1-.38.03-.58-.09-.3-.28-.42-.62-.41h-.18c-.16-.01-.24-.14-.18-.27.02-.05.06-.1.08-.15.19-.32.07-.61-.3-.73-.13-.04-.25-.02-.38.02v-.1c0-.25-.09-.44-.33-.57-.14-.08-.25-.19-.38-.29h0Z" style="fill: #a6d9e5;"/>
  <path d="M55.38,29.1c.06.11.09.24.17.32.23.24.48.45.77.62.29.16.58.32.87.49-.59.08-1.78-.71-1.82-1.43h.01Z" style="fill: #a6d9e5;"/>
  <path d="M54.15,34.14c.07.16.06.33.17.48.18.25.42.4.7.53.17.08.34.14.51.21.04.01.1,0,.09.07s-.07.04-.12.05c-.19.03-.33-.09-.49-.15-.39-.15-.68-.42-.92-.73-.13-.16-.1-.33.06-.45h0Z" style="fill: #a6d9e5;"/>
  <path d="M53.95,32.23s.04-.01.05,0c.04,0,.04.04.04.07v.33c-.01.12.03.23.11.33.07.09.14.19.21.29.02.02.04.04.01.07s-.05,0-.08-.01c-.38-.16-.4-.47-.39-.79,0-.09,0-.18.06-.27h0v-.02Z" style="fill: #a6d9e5;"/>
  <path d="M59.12,40.43c.2.12.35.1.52-.09.05-.05.09-.1.14-.15-.02.18-.1.32-.25.44-.08.07-.18.08-.27.03s-.18-.12-.14-.24h0Z" style="fill: #0f1a2b;"/>
  <path d="M59.78,40.2s0-.04.04-.04c-.01.01-.02.03-.04.04h0Z" style="fill: #0f1a2b;"/>
  <path d="M59.69,42.2v-.03s.02.01.03.03h-.04.01Z" style="fill: #0f1a2b;"/>
  <path d="M46.6,33.48h.03s-.02.01-.03,0h0Z" style="fill: #0f1a2b;"/>
  <path d="M59.32,41.78c.02.12.01.23-.03.34-.09.22-.45.34-.68.21-.09-.05-.12-.13-.14-.23-.01-.1.02-.2.03-.3.13-.02.24-.08.38-.1.16-.03.3,0,.44.08h0Z" style="fill: #a6d9e5;"/>
  <path d="M44.74,11.23c-.05.22-.17.43-.25.66-.09.27-.1.54-.17.81-.09.35-.23.69-.3,1.03-.09.35-.12.7-.21,1.06-.23.97-.53,1.94-.53,2.93,0,.43,0,.91.14,1.32.07.22.35.44.35.65,0,.09-.07.18-.16.22-.28,0-.56.09-.86.09-.14,0-.28-.03-.42-.09-.16.19-.35.12-.58.12-.09,0-.18.03-.25.04-.49.13-1,.1-1.47.18-.07-.03-.11-.09-.11-.15,0-.1.09-.19.09-.29,0-.06-.02-.1-.07-.13-.26-.73-.58-1.47-.89-2.19-.23-.53-.23-1.29-.63-1.74-.46,1.09-1.19,2.35-1.19,3.52,0,.32.17.58.31.89-.18.04-.47.13-.66.13-1.12,0-2.23-.1-3.35-.06-.11-.09-.19-.21-.19-.32,0-.29.44-.57.44-1.01,0-.13-.05-.24-.07-.35-.07-.24-.09-.46-.14-.69-.4-2-.98-3.97-1.6-5.94-.21-.7-.6-1.78-1.23-2.28-.14-.12-.32-.15-.44-.29.07-.07.16-.12.19-.21,1.62.1,3.23.16,4.83.21.11.03.18.1.18.21,0,.22-.26.43-.26.82,0,.35.09.69.12,1.04.07.8.21,1.58.51,2.34.35-.75.6-1.56.86-2.34.19-.56.4-1.1.4-1.67v-.27c.37-.13.79-.19,1.21-.19s.88.06,1.3.19c.35,1.01.53,2.09.9,3.1.05.13.12.28.18.41.04.12.04.23.09.34.11.25.23.47.28.73.18-1.03.53-2.04.53-3.1,0-.6-.11-1.29-.65-1.72,1.42-.32,2.91-.22,4.35-.54.04,0,.07-.01.11-.01.18,0,.26.21.33.32-.81.62-.79,1.43-1,2.25h0l-.02-.03Z"/>
  <path d="M34.12,20.06c.46,0,.93.02,1.38.03.45.02.91.03,1.37.03.12,0,.29-.04.45-.08,0-.02-.02-.03-.02-.05-.12-.24-.23-.46-.23-.74,0-.93.44-1.89.87-2.81.12-.26.24-.51.34-.76l.1-.23.17.19c.28.31.38.73.47,1.14.05.23.11.45.19.64.29.65.61,1.41.88,2.16.06.05.09.13.09.22,0,.08-.03.15-.06.2,0,.03-.03.06-.03.08.17-.02.34-.03.5-.05.29-.02.59-.04.87-.12h.06c.11-.04.26-.05.39-.04.17.01.22.01.29-.07l.08-.09.12.05c.27.11.51.07.77.03.13-.02.26-.04.4-.05.03-.02.05-.05.05-.08,0-.07-.08-.18-.15-.28-.08-.1-.16-.21-.19-.33-.15-.43-.15-.93-.15-1.36,0-.82.2-1.63.4-2.41.05-.18.09-.37.13-.55s.07-.35.1-.52c.03-.18.06-.36.11-.54.04-.19.1-.38.16-.57.05-.15.1-.3.14-.46.03-.12.05-.23.07-.35.03-.15.05-.31.11-.47.03-.11.08-.21.12-.32.05-.12.1-.22.12-.33h0c.04-.17.08-.34.11-.5.12-.61.25-1.24.85-1.75-.04-.07-.09-.14-.13-.14-.03,0-.06.01-.09.01-.72.16-1.47.22-2.18.27-.62.05-1.26.1-1.88.21.33.37.5.91.5,1.64s-.16,1.44-.32,2.13c-.07.33-.15.67-.21,1l-.15.85-.16-.85c-.04-.18-.11-.35-.19-.52-.03-.06-.06-.12-.08-.19-.04-.07-.05-.15-.06-.23,0-.04-.02-.08-.03-.13-.02-.05-.05-.12-.08-.19-.03-.07-.06-.14-.09-.21-.2-.54-.34-1.1-.48-1.64-.12-.46-.24-.94-.4-1.4-.37-.11-.76-.16-1.17-.16-.38,0-.74.05-1.05.15v.16c0,.55-.18,1.07-.36,1.58l-.19.57c-.21.64-.43,1.3-.72,1.92l-.16.34-.14-.35c-.27-.69-.44-1.45-.52-2.38,0-.13-.03-.25-.05-.38-.03-.22-.07-.44-.07-.68,0-.26.1-.45.18-.6.05-.09.09-.17.09-.23,0-.01,0-.04-.05-.06-1.41-.04-3.06-.09-4.71-.2-.02.02-.03.04-.05.05.03.02.06.03.09.05.07.04.15.08.22.14.5.4.92,1.17,1.27,2.35.59,1.88,1.19,3.9,1.6,5.96.02.09.04.18.05.28.02.14.05.27.09.4,0,.06.02.1.03.14.02.07.04.16.04.26,0,.28-.15.51-.28.69-.09.13-.16.24-.16.33,0,.05.04.11.1.18h.54l-.02.02ZM36.87,20.42c-.46,0-.93-.02-1.38-.03-.64-.02-1.31-.05-1.96-.02h-.06l-.05-.04c-.09-.08-.24-.23-.24-.43,0-.17.1-.32.21-.48s.23-.33.23-.53c0-.06-.02-.12-.03-.18,0-.05-.03-.1-.03-.15-.04-.13-.07-.28-.09-.42,0-.09-.03-.18-.05-.27-.41-2.05-1.01-4.06-1.6-5.93-.33-1.11-.73-1.85-1.18-2.21-.05-.04-.11-.07-.17-.1-.1-.05-.2-.11-.3-.21l-.08-.1.09-.09s.06-.05.09-.08c.04-.04.07-.06.08-.08l.04-.1h.12c1.69.12,3.39.17,4.82.21h.04c.18.06.29.19.29.35,0,.13-.06.24-.12.35-.07.14-.14.28-.14.47,0,.21.03.42.07.63.02.13.04.26.06.4.07.74.18,1.36.37,1.93.21-.5.38-1.02.55-1.53l.2-.58c.18-.51.35-.99.35-1.49v-.36l.1-.04c.37-.13.81-.2,1.27-.2s.93.07,1.35.2l.08.02.02.07c.17.49.3,1,.43,1.49.14.53.28,1.08.47,1.61.02.06.05.13.08.2.03.07.06.14.09.21.02.06.03.11.04.17,0,.06.02.12.04.16.03.07.06.13.08.19v.02c.03-.15.07-.3.1-.45.15-.67.31-1.37.31-2.07,0-.78-.19-1.29-.59-1.61l-.23-.18.3-.07c.73-.17,1.48-.22,2.2-.28.71-.05,1.44-.11,2.15-.27h.04s.07-.02.11-.02c.25,0,.37.22.44.35l.09.15-.1.08c-.6.46-.71,1.01-.83,1.66-.03.17-.07.34-.11.52-.03.13-.09.26-.14.38-.04.09-.08.19-.11.29-.05.14-.07.28-.1.43-.02.12-.04.25-.08.37-.04.16-.09.32-.14.47-.06.19-.12.37-.16.55s-.07.35-.1.53-.06.36-.11.54c-.04.18-.09.37-.13.55-.19.77-.39,1.56-.39,2.34,0,.42,0,.89.13,1.28.02.08.09.17.15.25.1.14.21.28.21.44,0,.14-.1.28-.24.35l-.03.02h-.04c-.12,0-.25.02-.39.04-.26.04-.56.08-.85-.02-.16.12-.34.11-.48.1-.09,0-.18,0-.29.02h-.06c-.3.1-.62.12-.93.14-.19.01-.38.03-.55.05h-.09c-.12-.05-.2-.16-.2-.28,0-.08.03-.15.06-.2.02-.04.03-.07.03-.09l-.05-.03v-.06c-.28-.75-.62-1.52-.91-2.18-.09-.21-.15-.45-.2-.68-.06-.28-.13-.56-.25-.79-.07.16-.15.33-.23.5-.41.9-.84,1.83-.84,2.7,0,.22.09.41.2.62.03.07.07.14.1.21l.07.15-.26.06c-.18.05-.43.11-.62.11h-.04Z"/>
  <path d="M50.68,15.71c-.23-.49-.26-1-.44-1.5l-.56,1.71,1-.03v-.18h0ZM55.63,20.17c-.32,0-.61-.09-.93-.09-.07,0-.14,0-.19.01-.3-.06-.6-.07-.9-.07-.37,0-.74.03-1.11.03-.41,0-.92.03-1.31-.1.05-.37.67-.72.67-1.14v-.21c0-.24-.11-.34-.4-.34-.23,0-.44.04-.67.04-.11,0-.19-.02-.3-.04-.11.01-.23.01-.33.01-.28,0-.54-.03-.83-.03-.56,0-.6.25-.6.65,0,.29.07.6.28.84,0,.12-.14.23-.28.27-.17.04-1.07.01-1.33.01-.95.03-1.9.07-2.85.09-.09-.07-.17-.18-.17-.28,0-.28.51-.63.65-.88.6-1.08.93-2.22,1.3-3.35.14-.41.32-.82.48-1.23.03-.1.05-.21.09-.31.17-.49.37-.95.55-1.44.07-.16.16-.35.21-.52.14-.51.4-1.01.4-1.53,0-.32-.05-.54-.28-.81-.03-.06-.14-.18-.14-.23v-.25c0-.16.28-.19.42-.19.25,0,.49.03.74.03.41,0,.81-.01,1.2-.01.45,0,.89.01,1.33.03.21,0,.42.03.63.03.14,0,.28-.02.42-.02.17,0,.37.02.53.1-.25.32-.4.75-.4,1.12v.13c.28,1.74.96,3.41,1.58,5.09.18.44.33.9.49,1.35.07.22.12.44.21.68.07.19.17.37.26.54.3.65.54,1.31,1.12,1.82-.12.15-.32.21-.55.21h.01Z"/>
  <path d="M50.23,14.75l-.33,1.01.63-.02c-.13-.29-.2-.58-.26-.86,0-.04-.02-.09-.03-.13h0ZM49.46,16.07l.77-2.34.16.44c.08.22.13.44.18.65.07.29.13.57.26.83v.38s-1.36.04-1.36.04h-.01ZM54.7,19.94c.17,0,.33.02.49.05.29.04.59.07.76-.02-.45-.45-.7-.99-.93-1.52l-.11-.24s-.05-.09-.07-.14c-.07-.13-.14-.27-.19-.42-.06-.16-.1-.31-.15-.46-.02-.07-.04-.15-.07-.22l-.03-.09c-.14-.42-.29-.85-.46-1.25-.09-.24-.18-.47-.26-.71-.53-1.43-1.08-2.9-1.32-4.41v-.15c0-.34.12-.73.32-1.05-.17-.04-.34-.03-.49-.02-.18.01-.37,0-.55,0-.1,0-.2-.02-.3-.02-.63-.02-1.25-.03-1.91-.02-.33,0-.66.01-.99,0-.12,0-.24-.01-.36-.01-.14,0-.25.03-.26.05v.24s.05.05.07.08.05.06.06.09c.25.28.3.54.3.88,0,.37-.13.73-.25,1.08-.06.16-.11.32-.16.48-.04.14-.11.28-.17.42l-.05.11c-.08.22-.17.45-.26.68-.1.25-.19.5-.29.75-.02.05-.03.1-.04.15s-.03.1-.04.15c-.05.13-.1.26-.15.38-.11.28-.23.57-.33.86l-.13.4c-.32.99-.65,2.02-1.18,2.98-.06.11-.18.23-.29.35-.15.16-.34.35-.34.47,0,.03.02.07.08.13.59,0,1.2-.03,1.78-.05.33-.01.66-.02,1-.03h.28c.29,0,.91.01,1.02-.01.07-.02.12-.06.15-.09-.17-.22-.27-.52-.27-.87s0-.79.75-.79c.14,0,.28,0,.42.01.23.01.49.03.71,0h.06c.11.03.17.04.25.04.11,0,.21-.01.32-.02.12-.01.23-.02.35-.02.38,0,.56.16.56.48v.21c0,.28-.21.52-.39.73-.1.11-.19.22-.24.32.28.06.62.06.92.06h.19c.18,0,.36,0,.54-.02.19,0,.37-.01.56-.01.24,0,.56,0,.89.07.06-.01.13-.01.19-.01h0v-.03ZM55.63,20.32c-.17,0-.33-.02-.49-.05-.15-.02-.3-.04-.44-.04h-.23c-.31-.06-.62-.07-.86-.07-.18,0-.37,0-.55.01-.19,0-.37.01-.56.01h-.18c-.39,0-.82,0-1.18-.11l-.12-.04.02-.11c.03-.21.19-.4.35-.58.16-.18.32-.37.32-.55v-.21c0-.14-.02-.19-.25-.19-.11,0-.21.01-.32.02-.23.02-.48.03-.66-.02-.27.03-.51,0-.74,0-.13,0-.27-.01-.4-.01-.42,0-.44.12-.44.5,0,.22.04.52.24.75l.04.04v.05c0,.2-.21.36-.4.41-.14.03-.58.03-1.1.02h-.27c-.33,0-.66.02-.99.03-.61.02-1.24.04-1.86.05h-.06l-.05-.04c-.1-.09-.23-.22-.23-.39,0-.23.21-.45.42-.66.1-.1.2-.21.25-.29.52-.94.84-1.95,1.16-2.93l.13-.4c.1-.29.22-.59.33-.87.05-.12.1-.25.15-.37.01-.04.02-.08.03-.13.02-.06.03-.12.05-.18.09-.26.19-.51.29-.76.09-.23.17-.45.26-.68l.05-.12c.06-.13.12-.27.16-.39.04-.16.1-.33.16-.49.12-.34.24-.67.24-.99,0-.29-.04-.48-.25-.72-.03-.04-.04-.06-.06-.08-.07-.1-.12-.17-.12-.24v-.25c0-.21.22-.34.58-.34.13,0,.25,0,.38.01.33.02.65.01.97,0,.67-.01,1.3,0,1.91.02.11,0,.22,0,.33.02.17.01.33.02.5,0h.22c.16,0,.4.01.61.12l.15.08-.1.13c-.23.3-.37.7-.37,1.03v.13c.24,1.46.78,2.92,1.31,4.34.09.24.18.47.26.71.17.41.32.84.46,1.26l.03.09c.03.08.05.16.07.23.04.14.08.29.14.44.05.13.12.26.18.38.03.05.05.1.08.15l.11.25c.25.57.49,1.1.98,1.53l.1.09-.09.1c-.15.17-.37.26-.67.26h0l.02.04Z"/>
  <path d="M65.3,9.54c-.63.47-1.07,1.59-1.32,2.26-.76,2.24-1.76,4.43-2.3,6.71-.02.09-.04.18-.04.26,0,.47.42.75.42,1.09,0,.09-.04.19-.09.27-.37-.02-.72-.02-1.09-.02-1.13,0-2.27.02-3.39.02h-.07c-.05-.05-.12-.1-.12-.18,0-.19.39-.35.44-.6.04-.16.04-.32.04-.49,0-1.12-.37-1.87-.79-2.9-.16-.4-.26-.82-.42-1.22-.12-.31-.28-.6-.39-.93-.23-.59-.35-1.19-.6-1.76-.37-.91-.63-1.96-1.46-2.68.03-.1.14-.32.32-.32.04,0,.07.02.11.03.37.07.75.09,1.12.09.7,0,1.39-.07,2.09-.07.33,0,.67.01,1,.09-.25.37-.32.81-.32,1.24,0,.82.23,1.65.44,2.45.28.99.51,1.7.81,2.68.19-1.56.77-2.81,1.1-4.34.07-.29.12-.59.12-.88,0-.46-.3-.74-.3-.96,0-.1.07-.18.17-.22,1.6-.03,3.18-.03,4.76-.12.05.07.12.13.2.19-.13.15-.3.19-.46.31h.02Z"/>
  <path d="M57.49,19.98h1.69c.91,0,1.8-.03,2.69,0,.02-.04.03-.08.03-.12,0-.12-.08-.24-.16-.38-.12-.19-.26-.42-.26-.71,0-.1.02-.2.04-.29.36-1.5.92-2.97,1.46-4.4.29-.76.59-1.54.85-2.32.28-.77.73-1.86,1.37-2.33h0c.07-.05.14-.09.2-.12.04-.02.08-.05.12-.07l-.04-.04c-1.15.06-2.31.08-3.44.09-.4,0-.8.01-1.21.02-.06.03-.06.06-.06.08,0,.06.04.15.09.25.09.18.2.41.2.71,0,.27-.04.56-.13.91-.14.63-.32,1.22-.49,1.79-.26.84-.5,1.63-.61,2.54l-.09.74-.22-.72c-.1-.33-.19-.62-.28-.91-.18-.57-.34-1.11-.53-1.77l-.04-.14c-.2-.77-.41-1.56-.41-2.36,0-.45.08-.82.23-1.13-.27-.04-.53-.05-.76-.05-.35,0-.7.02-1.04.04-.34.02-.7.04-1.05.04s-.76-.01-1.16-.09l-.05-.02s-.02,0-.03-.01c-.03,0-.08.06-.12.14.65.6.94,1.39,1.22,2.14.07.18.13.35.2.52.13.32.23.64.33.96.08.26.16.54.27.8.06.19.14.37.22.54.06.13.11.25.16.38.08.2.15.42.22.63.06.2.13.4.2.59l.14.33c.36.86.66,1.6.66,2.62,0,.17,0,.34-.04.51-.04.17-.17.29-.29.4-.06.06-.15.14-.15.17,0,0,.01.02.03.03h.04ZM62.06,20.28h-.09c-.36-.02-.71-.02-1.08-.02h-3.52l-.05-.04c-.06-.05-.18-.15-.18-.29,0-.15.12-.27.24-.38.09-.08.18-.17.2-.25.03-.15.03-.3.03-.46,0-.96-.28-1.65-.64-2.51l-.14-.33c-.08-.2-.15-.41-.21-.61s-.13-.41-.21-.61c-.05-.13-.1-.25-.16-.37-.08-.18-.16-.37-.23-.56-.1-.27-.19-.55-.27-.82-.1-.33-.19-.63-.32-.94-.07-.17-.14-.35-.2-.53-.28-.75-.57-1.54-1.22-2.1l-.07-.06.03-.09c.02-.07.15-.43.47-.43.06,0,.11.02.15.04.36.07.75.08,1.08.08.35,0,.7-.02,1.04-.04.34-.02.7-.04,1.05-.04.31,0,.67.01,1.04.09l.21.05-.12.17c-.2.29-.29.67-.29,1.16,0,.76.2,1.54.4,2.29l.03.13c.19.65.35,1.19.53,1.76.03.09.05.17.08.26.13-.67.32-1.3.51-1.91.17-.56.35-1.15.48-1.77.08-.34.12-.61.12-.85s-.09-.42-.17-.59c-.07-.13-.12-.25-.12-.37,0-.16.1-.28.27-.35h.06c.42-.02.83-.03,1.24-.03,1.15-.02,2.35-.03,3.51-.1h.09l.05.06c.04.06.11.11.17.16l.11.09-.09.11c-.1.11-.21.18-.32.23-.06.03-.11.06-.17.1-.58.43-1,1.46-1.27,2.2-.26.78-.56,1.57-.85,2.33-.54,1.42-1.09,2.89-1.45,4.37-.02.07-.03.16-.03.23,0,.22.11.39.22.56.1.16.21.33.21.53,0,.11-.04.24-.11.34l-.05.07h0v.04Z"/>
  <g style="clip-path: url(#clippath);">
    <g>
      <path d="M74.24,19.86l-.41.18c-1.33-.03-2.67,0-3.99,0h-1.07c-1,0-2-.03-3-.07-.07-.07-.12-.18-.12-.26,0-.41.74-.71.6-1.21.3-.4.24-5.05.24-6.12,0-.66,0-1.35-.07-2.01-.09-.69-.93-.72-.93-1.18,0-.02,0-.04.02-.08.16-.19.43-.1.68-.1.14,0,.36-.02.49,0,.19.03.39,0,.58,0,.7,0,1.41-.03,2.11-.03h1.76c.83,0,1.65-.01,2.48-.07.21.72.19,1.36.44,2.1.07.2.08.19.08.32s-.19.27-.38.27c-.12,0-.25,0-.38-.08-.4-.21-.71-.26-1.19-.26-.53,0-1.07.01-1.6.01-.32,0-.61,0-.93-.01-.02.12-.02.22-.02.34,0,.37.05.72.02,1.09.12.06.26.09.4.09.93,0,1.51.06,2.3-.35.14-.07.33-.23.47-.23.12,0,.16.07.18.15.19.52.14,1.09.16,1.62.02.25.09.5.12.75v.25c0,.21-.02.41-.21.56-.83-.21-1.61-.28-2.47-.28-.3,0-.6.01-.9.05l.07,2.24c.42.07.84.09,1.27.09.52,0,1.07,0,1.61-.06.77-.09,1.28-.7,1.87-1.2.21.03.49-.06.6.16-.32,1.18-.35,2.21-.87,3.34h-.01Z"/>
      <path d="M65.86,19.82c1.07.05,2.03.07,2.92.07h2.39c.86,0,1.75-.01,2.64,0l.32-.14c.32-.7.44-1.36.58-2.06.07-.37.14-.75.25-1.15-.03-.03-.09-.04-.24-.03h-.13c-.1.08-.2.17-.29.26-.47.42-.95.86-1.62.93-.53.06-1.07.06-1.58.06h-.05c-.35,0-.82-.01-1.29-.09l-.13-.02-.08-2.49.15-.02c.29-.03.6-.05.92-.05.89,0,1.66.09,2.42.27.08-.09.1-.22.1-.4v-.25c-.01-.08-.03-.17-.05-.27-.03-.15-.06-.31-.07-.47v-.37c0-.41,0-.83-.14-1.21-.01-.04-.02-.05-.02-.05-.06,0-.19.08-.25.13-.05.03-.1.06-.14.09-.74.38-1.3.38-2.07.37h-.31c-.17,0-.33-.04-.48-.11l-.09-.05v-.1c.03-.22.02-.43,0-.66,0-.14-.02-.28-.02-.42,0-.12,0-.23.02-.36l.02-.13h.14c.57.03,1.13.02,1.72.01h.8c.47,0,.81.04,1.26.27.09.05.18.06.3.06s.22-.09.22-.13c0-.07,0-.08-.03-.16-.01-.03-.03-.07-.04-.12-.14-.41-.2-.79-.25-1.16-.04-.28-.08-.55-.16-.83-.87.06-1.71.06-2.36.06h-1.76c-.35,0-.7,0-1.05.02-.42,0-.83,0-1.25.02-.13,0-.27.02-.41,0-.08-.02-.21-.01-.32,0h-.34c-.2-.02-.29-.02-.35.05.01.12.13.2.33.33.25.17.56.38.62.82.07.67.07,1.36.07,2.03v.45c.02,3.58-.05,5.26-.24,5.68.06.33-.17.57-.35.78-.13.15-.26.28-.26.41,0,.03.02.08.05.12h-.02ZM73.87,20.18h-.04c-.89-.02-1.79-.01-2.66,0h-2.39c-.92,0-1.91-.02-3.01-.07h-.07l-.04-.05c-.1-.11-.16-.24-.16-.36,0-.24.17-.42.33-.6.21-.23.33-.38.27-.57l-.02-.06.04-.05c.16-.22.23-2.1.22-5.58v-.45c0-.66,0-1.35-.07-2-.04-.31-.26-.46-.49-.61-.22-.15-.44-.3-.44-.58,0-.02,0-.08.04-.14.19-.23.44-.2.65-.19.1,0,.18.01.3,0,.13,0,.28-.01.4.02.09.01.21,0,.33,0,.42-.03.84-.01,1.26-.02.35,0,.71-.02,1.06-.02h1.76c.67,0,1.56,0,2.46-.07h.13l.03.11c.1.34.15.67.2.98.06.37.11.73.24,1.12.02.05.03.09.04.11.04.1.05.14.05.25,0,.22-.26.42-.54.42-.13,0-.3,0-.46-.1-.38-.2-.67-.23-1.1-.23h-.8c-.54,0-1.06.02-1.59,0v.19c0,.14,0,.27.02.4.01.19.02.39.01.59.07.02.15.04.24.04h.31c.75,0,1.25.01,1.91-.33.04-.02.08-.05.12-.07.14-.09.28-.18.43-.18.1,0,.28.03.33.26.15.41.15.86.16,1.29v.36c0,.14.04.28.07.43.02.1.04.2.05.3v.27c0,.23-.02.48-.27.67l-.06.05-.08-.02c-.76-.19-1.53-.28-2.43-.28-.25,0-.5.01-.74.03l.06,1.98c.41.06.8.07,1.11.07h.05c.5,0,1.03,0,1.54-.06.56-.06.99-.45,1.44-.85.12-.1.23-.21.35-.31l.06-.05h.07s.1.02.16.01c.17,0,.44,0,.56.24l.02.05v.05c-.12.41-.2.81-.27,1.19-.14.73-.27,1.43-.62,2.18l-.02.05-.49.21h0l-.02-.02Z"/>
    </g>
  </g>
  <path d="M5.43,15.07c-.28,0-.57.01-.85.08.02.19,0,.4,0,.59v.53c0,.32.02.65.05.99.26.05.55.05.81.05.94,0,1.24-.52,1.24-1.22,0-.76-.35-1.02-1.26-1.02h.01ZM5.13,11.29c-.18,0-.37.03-.55.06v.06c0,.19-.02.39-.02.59,0,.22.02.44.04.68h.25c.44,0,.83-.04,1.1-.37.09-.12.14-.25.14-.4,0-.4-.53-.62-.96-.62h0ZM10.06,17.07c-.07.43-.5,1.1-.81,1.45-1.04,1.19-2.67,1.42-4.34,1.42-.32,0-.64,0-.94-.01-1.15-.05-2.3-.09-3.43-.15-.09-.05-.39-.15-.39-.24,0-.06.02-.18.07-.22.09-.07.21-.12.32-.18.35-.24.55-.47.55-.87,0-2.15.09-4.31.09-6.46,0-.5-.14-2.16-.55-2.49,0-.14.05-.27.21-.34.5.06.99.07,1.49.07.83,0,1.66-.04,2.48-.04,2.09,0,4.72.56,4.72,2.71,0,.86-.19,1.55-1.15,2.01,1.43.74,1.68,1.76,1.68,3.08,0,.09.02.18,0,.25h0Z"/>
  <path d="M4.75,12.54h.1c.45,0,.76-.05.97-.31.07-.1.11-.2.11-.31,0-.31-.47-.48-.8-.48-.12,0-.26.02-.39.04v.53c0,.17.01.35.03.53h-.02ZM4.84,12.83h-.39v-.18c-.03-.22-.05-.43-.05-.65v-.78l.13-.02c.17-.03.38-.06.58-.06.54,0,1.11.29,1.11.77,0,.17-.06.33-.17.48-.33.4-.81.43-1.23.43h.02ZM4.78,17.13c.22.03.45.03.67.03.74,0,1.08-.34,1.08-1.07,0-.66-.27-.88-1.1-.88-.19,0-.43,0-.68.05v1c0,.28.01.56.04.87h-.01ZM5.45,17.45c-.26,0-.56,0-.84-.05l-.12-.02v-.11c-.05-.35-.06-.68-.06-1.01v-1.24l.12-.03c.32-.07.64-.08.89-.08,1,0,1.41.34,1.41,1.17,0,1.12-.76,1.36-1.4,1.36h0ZM.59,19.64c1.11.06,2.26.1,3.37.15.32.01.64.01.95.01,1.4,0,3.14-.16,4.21-1.37.33-.36.72-1,.78-1.38h0v-.23c0-1.35-.26-2.26-1.6-2.95l-.25-.13.26-.12c.88-.42,1.06-1.06,1.06-1.88,0-2.38-3.49-2.57-4.57-2.57-.4,0-.81.01-1.22.02-.42.01-.84.02-1.26.02s-.92,0-1.45-.07c-.04.02-.07.06-.08.14.45.49.54,2.21.54,2.54,0,1.08-.02,2.17-.04,3.23-.02,1.06-.04,2.15-.04,3.23,0,.51-.3.78-.61.99-.05.03-.09.05-.13.07-.07.03-.13.06-.17.1l-.02.08s.16.08.21.1c.02,0,.04.02.06.03h0ZM4.92,20.09c-.31,0-.64,0-.95-.01-1.15-.04-2.31-.09-3.43-.15h-.04l-.03-.02s-.04-.02-.08-.03c-.18-.08-.39-.17-.39-.33,0-.04,0-.23.12-.33.07-.06.16-.1.24-.14.03-.02.07-.03.1-.05.34-.23.47-.43.47-.75,0-1.08.02-2.17.04-3.23.02-1.06.04-2.15.04-3.23,0-.7-.19-2.13-.49-2.38l-.05-.04v-.07c0-.21.11-.38.3-.47l.04-.02h.05c.54.07,1.06.08,1.46.08s.83-.01,1.25-.02c.41-.01.82-.02,1.23-.02,1.15,0,4.88.21,4.88,2.86,0,.74-.13,1.49-1,2.01,1.26.75,1.53,1.74,1.53,3.08v.28c-.08.49-.54,1.18-.85,1.52-1.15,1.31-2.99,1.48-4.46,1.48h0l.02-.02Z"/>
  <path d="M14.69,10.46c-.02.18-.05,1.65-.05,1.65-.09,1.9-.02,3.46-.02,5.35,0,.43,0,.87.07,1.29.05.31.56.65.56.93,0,.13-.14.21-.3.21-.33,0-.67-.03-1.02-.03-.46,0-.91.02-1.37.02-.56,0-1.11-.02-1.67-.07-.07-.09-.12-.19-.12-.29,0-.31.49-.63.56-1.04.23-1.35.21-2.85.21-4.22v-1.16c0-.73-.07-2.69-.37-3.29,0,0-.24-.46-.24-.7,0-.09.14-.2.22-.26,1.35.03,2.69.02,4.04.1.14,0,.11.34.09.41-.14.42-.53.7-.59,1.12h0v-.02Z"/>
  <path d="M13.93,19.71c.18,0,.36,0,.53.02.16,0,.33.01.49.01.07,0,.14-.02.14-.06,0-.09-.13-.25-.24-.38-.14-.17-.29-.34-.32-.52-.07-.44-.07-.89-.07-1.32,0-.57,0-1.11,0-1.64,0-1.23-.03-2.39.04-3.72,0-.15.03-1.48.05-1.66h0c.03-.27.18-.48.33-.68.11-.15.21-.3.27-.47,0-.04.02-.17,0-.23-.93-.06-1.88-.07-2.8-.08-.38,0-.75,0-1.13-.02-.07.05-.11.1-.12.12,0,.14.14.46.23.63.38.76.38,3.33.38,3.35v1.44c0,1.32,0,2.69-.21,3.96-.04.24-.2.44-.34.63-.11.15-.22.29-.22.4,0,.05.02.1.06.16.47.05.96.07,1.58.07h1.37-.01ZM14.95,20.03c-.17,0-.33,0-.5-.02-.39-.02-.79-.01-1.2,0h-.69c-.66,0-1.18-.02-1.69-.07h-.07l-.04-.06c-.1-.13-.15-.26-.15-.38,0-.2.14-.38.28-.57.12-.16.25-.33.28-.5.21-1.25.21-2.61.21-3.92v-1.44c0-.97-.1-2.71-.35-3.23-.03-.05-.26-.5-.26-.76,0-.16.18-.31.29-.38l.04-.03h.05c.39,0,.79.01,1.18.02.94.01,1.91.02,2.86.08.07,0,.14.04.18.1.12.15.06.45.05.5-.07.21-.19.38-.31.55-.13.18-.25.35-.28.55-.02.14-.04,1.23-.05,1.63-.06,1.32-.05,2.48-.04,3.7,0,.53,0,1.07,0,1.65,0,.42,0,.86.07,1.27.02.11.14.25.26.39.15.18.31.36.31.56s-.19.35-.46.35h.02Z"/>
  <path d="M24.9,19.49c-.92.82-2.91.94-3.68.94-.88,0-1.81-.18-2.51-.6-1.07-.62-1.9-1.56-2.23-2.62-.09-.25-.2-.85-.27-1.11-.14-.63-.15-1.12-.15-1.78,0-2.71,1.95-5.53,5.53-5.53,1.62,0,3.11.25,3.65,1.69.09.2.12.41.12.62,0,1.1-.8,1.88-2.51,1.99-.07-.88-.11-1.84-1.46-1.84-1.53,0-2,2.46-2,3.41,0,1.22.3,3.16,2.14,3.16.37,0,.7-.07,1-.23.56-.32.63-.94.79-1.48-.16-.03-.32-.04-.47-.04-.77,0-.96-.06-1.56.35-.09-.77-.12-1.39-.12-2.17,0-.13.02-.85.16-.85.03,0,.79.31.93.34.39.12,1.7.12,2.18.12.68,0,1.19-.01,1.88-.03.02.35.02.72.02,1.07s0,.73-.02,1.12c-.05,1.46-.54,2.72-1.41,3.5h0v-.03Z"/>
  <path d="M21.59,8.94c-3.49,0-5.37,2.77-5.37,5.38,0,.66,0,1.13.15,1.75.03.1.06.24.09.4.06.26.12.55.17.69.32,1.01,1.1,1.93,2.16,2.54.62.37,1.48.58,2.43.58.43,0,2.62-.04,3.57-.89h0c.83-.74,1.31-1.95,1.36-3.4,0-.38.02-.75.02-1.11,0-.3,0-.62,0-.92h-.2c-.52.02-.97.03-1.53.03-.85,0-1.86-.01-2.23-.12-.07-.02-.3-.1-.61-.22-.08-.03-.16-.06-.21-.08-.04.14-.06.44-.06.68,0,.69.03,1.26.1,1.91.42-.24.68-.24,1.16-.23.22,0,.51,0,.77.05l.17.03-.04.15c-.02.08-.05.17-.07.26-.13.49-.26,1.01-.79,1.31-.32.17-.67.26-1.08.26-2,0-2.3-2.07-2.3-3.3,0-1.11.54-3.56,2.16-3.56,1.42,0,1.54,1,1.6,1.83,1.42-.13,2.21-.78,2.21-1.83,0-.2-.04-.39-.11-.56-.53-1.41-2-1.6-3.51-1.6h0v-.03ZM21.22,20.58c-1.01,0-1.93-.22-2.6-.63-1.12-.65-1.96-1.63-2.29-2.7-.06-.16-.12-.46-.18-.72-.03-.15-.07-.3-.09-.4-.14-.65-.15-1.14-.15-1.81,0-2.75,1.99-5.67,5.69-5.67,1.55,0,3.21.21,3.8,1.79.09.2.13.42.13.66,0,1.25-.97,2.03-2.66,2.14h-.16l-.02-.21c-.07-.88-.13-1.63-1.29-1.63-1.41,0-1.84,2.4-1.84,3.27,0,1.12.26,3.01,1.98,3.01.35,0,.65-.07.92-.21.42-.24.53-.67.65-1.13,0-.04.02-.07.03-.11-.19-.02-.39-.02-.55-.02-.55,0-.72,0-1.19.32l-.22.15-.03-.26c-.09-.77-.13-1.4-.13-2.19,0-1,.21-1,.32-1,.04,0,.05,0,.4.13.2.08.5.19.57.21.37.11,1.7.11,2.14.11.56,0,1,0,1.52-.02h.51v.13c.02.36.02.72.02,1.08s0,.74-.02,1.12c-.05,1.53-.57,2.81-1.46,3.6h0c-1.04.93-3.34.98-3.79.98h0Z"/>
  <path d="M44.3,10.14c-.21.4-.25.93-.35,1.35-.35,1.56-.74,3.12-1.05,4.68-.14.72-.26,1.4-.26,2.12,0,.34.05.68.33.93v.31c-.87.03-1.6.15-2.42.18-.53-1.28-1-2.46-1.46-3.63-.04-.12-.17-.53-.32-.93-.14-.41-.26-.75-.26-.77-.02-.03-.05-.04-.07-.07-.28.66-.7,1.51-1.07,2.38-.39.88-.7,1.75-.7,2.41,0,.18.03.37.23.73l-2.92-.04c.07-.27.12-.37.23-.56.07-.1.1-.19.1-.29,0-.03-.03-.22-.09-.46-.05-.22-.12-.44-.14-.53-.42-1.9-1.02-3.77-1.46-5.66-.11-.47-.17-.94-.4-1.37-.19-.37-.44-.72-.93-1.32,1.05.07,1.74.12,2.42.12.28,0,.55-.01,1.02-.03-.02.21-.05.34-.11.5-.03.1-.05.19-.05.27,0,.12.04.23.05.35.35,1.47.7,2.94,1.04,4.43.02.01.05.04.09.07.17-.79.6-1.6.91-2.44.37-.99.65-1.99.93-3.01.14-.13.28-.21.46-.21.23,0,.4.12.61.12.04,0,.07-.01.17-.04.26.09.33.21.39.32.03.13.03.24.14.34.28,1.15.67,2.22,1.04,3.29.18.54.44,1.06.65,1.6.35-.47.39-1.08.49-1.6.04-.19.09-.38.14-.56.05-.27.07-.51.12-.77.12-.63.32-1.26.32-1.91,0-.27-.04-.53-.21-.94.6-.1,1-.1,1.4-.12.39-.01.74-.03,1.4-.23-.07.28-.14.42-.21.56-.05.13-.12.25-.21.44h0Z" style="fill: #fdc746;"/>
  <path d="M50.72,14.51c-.25-.51-.25-1.22-.63-1.66-.03.06-.09.18-.14.31-.05.18-.11.34-.12.41l-.56,1.56-.17.5-.11.29c-.04.07-.05.13-.05.13v.18h1.63c.24.01.53,0,.75-.04-.14-.24-.23-.52-.3-.77-.09-.31-.17-.63-.3-.91h0ZM52.86,19.61c-.21,0-.41.01-1.07.1.37-.41.54-.74.54-.82,0-.32.02-.81-.35-1.01h-3.58c-.31.29-.26.78-.26,1.15-.02.16-.02.32-.11.62-.44-.06-.72-.07-1.02-.07-.51,0-1.02.06-1.76.15.02-.4.14-.44.39-.72.14-.18.42-.86.49-1.04.04-.13.04-.25.05-.38.07-.32.23-.62.35-.93.23-.63.42-1.26.7-1.88.05-.12.11-.23.12-.32.03-.13.03-.29.09-.42.07-.28.21-.54.32-.82.05-.13.07-.25.12-.38.07-.19.2-.38.3-.58.24-.56.44-1.12.44-1.69,0-.25-.05-.51-.24-.84.19-.14.24-.16.46-.16.17,0,.35.03.53.03.25,0,.48-.03.72-.03.46,0,.9.05,1.34.05.09,0,.17,0,.49-.02-.09.38-.11.59-.11.78,0,1.22.77,2.31,1,3.48.02.13.02.27.05.38.03.15.12.29.17.44.51,1.28,1.02,2.54,1.49,3.84.11.28.32.78.76,1.21h-.65c-.6.03-1.18-.09-1.77-.09h0v-.03Z" style="fill: #fdc746;"/>
  <path d="M63.37,11.79c-.05.15-.14.29-.21.44-.07.21-.12.41-.17.62-.16.52-.41,1-.58,1.49-.51,1.43-1.16,3.03-1.44,4.49,0,.28.3.66.48.9l-3.45.04c.29-.38.29-.65.29-.85,0-.5-.12-.98-.3-1.45-.81-2.27-1.55-4.56-2.39-6.81-.09-.23-.28-.44-.42-.66-.05-.09-.11-.18-.26-.57.51.16.68.16.86.16.51,0,1-.09,1.51-.09.16,0,.33.02.68.07-.12.36-.16.56-.16.77,0,.79.33,1.54.56,2.29.49,1.5.77,3.04,1.28,4.54h.05c.27-.76.32-1.57.53-2.34.16-.56.46-1.38.72-2.19.28-.81.49-1.57.49-2.04,0-.28-.07-.57-.25-1.07.76.04,1.27.06,1.77.06.42,0,.84-.02,1.65-.06-.42.49-.58.69-.72.91-.27.43-.35.91-.53,1.35h.01Z" style="fill: #fdc746;"/>
  <path d="M70.45,19.49c-.95,0-1.92-.02-2.88-.02h-1.05c0-.25.05-.4.12-.53.07-.12.16-.23.25-.41.25-.59.16-1.44.16-2.06,0-.49-.05-.96-.05-1.43,0-1.09.12-2.16.12-3.25,0-.91.02-1.59-.65-2.38,1.41.06,2.42.1,3.46.1.96,0,1.93-.03,3.04-.19.19.37.37,1.19.42,1.71-.61-.19-.98-.24-1.35-.24-.58,0-1.14.05-1.7.05-.42,0-.84-.03-1.27-.03-.06,0-.1.02-.12.06-.03.06-.09,1.35-.09,1.53,0,.23.02.47.07.71.04.06.07.12.14.16.72,0,1.42-.05,2.14-.05.28,0,.85-.15,1.34-.43.09.27.11.44.11.6.02.18.02.34.02.54,0,.32.05.66.03,1.04-.86-.1-1.65-.19-2.3-.19-.4,0-.83.03-1.23.06-.17.29-.23.63-.23.99s.04.69.04,1.04v.31c.02.06.04.12.04.18,0,.18-.07.32-.07.49,0,.13.07.18.35.18.65,0,1.32.01,1.97.01.58,0,1.16.01,1.72-.1.3-.06.52-.19.75-.34.09-.07.26-.3.73-.52-.24.93-.64,1.58-.78,2.29-1.16.1-2.2.12-3.23.12h-.02Z" style="fill: #fdc746;"/>
  <path d="M4.03,10.97v2.13s.04.04.05.04c.78,0,1.54.06,2.19-.36.35-.21.55-.5.55-.86,0-.61-.85-1.04-1.57-1.04-.42,0-.83,0-1.22.08h0ZM4.03,14.71c.02.33.02.99.02,1.63,0,.53,0,1.08-.03,1.38.39.01.78.06,1.17.06.65,0,1.33-.1,1.77-.47.34-.3.39-.8.39-1.26,0-1.24-1.04-1.44-2.41-1.44-.3,0-.64.03-.9.1h-.01ZM9.47,16.5c0,.86-.38,1.56-1.14,2.14-.96.71-2.12.87-3.31.87s-2.28-.07-3.8-.16c.44-.4.55-.98.62-1.66.05-.65.05-1.32.05-1.61,0-.5-.02-1.01-.02-1.51,0-.83.09-1.64.09-2.46s-.11-1.61-.51-2.56c1.26-.03,2.27-.12,3.26-.12,1.42,0,3.12.2,3.96,1.3.28.37.31.8.31,1.21,0,.9-.6,1.35-1.53,1.76,1.32.57,2.03,1.64,2.03,2.8h-.01Z" style="fill: #fdc746;"/>
  <path d="M14.1,11.97c0,1.28.03,2.56.03,3.85,0,.84-.05,1.69-.05,2.53,0,.31.05.57.42,1-.46.08-.63.08-.79.08h-.3c-.55,0-1.09-.08-1.63-.06l-.47.03c.54-.6.63-1.19.63-1.65,0-.6.09-1.19.09-1.8,0-.19-.03-.38-.03-.57,0-.25.03-.49.03-.74,0-.81-.09-1.6-.09-2.41,0-.23.02-.49.04-.72,0-.13.03-.25.03-.38,0-.12-.03-.24-.03-.35-.07-.71.03-.84-.47-1.47,1.14,0,1.93.06,3.27.06-.55.37-.6.82-.63,1.32-.03.53-.03,1.08-.03,1.28h-.02Z" style="fill: #fdc746;"/>
  <path d="M24.65,19.03c-.69.67-2.3.96-3.03.96-3.57,0-5.01-2.77-5.01-5.39s1.51-5.37,5.02-5.37c1,0,2.28.09,2.9.99.21.31.35.71.35,1.06,0,.69-.48,1.19-1.53,1.4.12-.28.07-.44.07-.47,0-.25-.02-.4-.16-.59-.42-.63-.95-.82-1.81-.82-1.91,0-2.63,2.4-2.63,3.82,0,1.5.74,3.6,2.7,3.61,1.7.01,2.42-1.35,2.42-2.45-.39-.09-.86-.09-1.28-.09-.23,0-.44,0-.88.09,0-.62.03-1.04.03-1.47,0-.16-.05-.35-.09-.52.68.43,1.51.46,2.34.46.63,0,1,.01,1.83-.05,0,.66-.02,1.26-.02,1.88s-.22,1.95-1.24,2.94h.02Z" style="fill: #fdc746;"/>
  <path d="M36.02,15.24c.18-.8.54-1.37.86-2.21.37-.99.65-1.98.93-3.01.14-.13.38-.11.54-.05,0,0-.23.18-.31.49-.08.32-.62,2.18-.87,2.77s-.61,1.37-.68,1.53c-.07.16-.48.64-.48.47h0ZM41.4,15.27c.35-.47.39-1.08.49-1.6.04-.19.09-.38.14-.56.05-.27.07-.51.12-.77.12-.63.32-1.26.32-1.91,0-.27.08-.31-.1-.72.34-.08.52-.1.9-.09-.12.22-.28.33-.37.53-.21.4-.18.98-.26,1.41-.3,1.58-.36,1.81-.78,3.37-.07.26-.44.51-.46.34h0ZM39.39,15.24c.07.24.95,2.36,1.03,2.58.08.22.51,1.39.51,1.39,0,0,1.23-.05,1.58-.08.12.04.15.1.15.1l.02.13c-.94.01-1.14.07-1.97.1-.52-1.28-.85-2.22-1.31-3.4-.03-.12-.17-.53-.32-.93-.14-.41-.26-.75-.26-.77,0-.29.34.16.55.86h0l.02.02ZM34.92,18.29c.13.48.11.87.06.96s1.38.08,1.38.08c.05.11.08.1.17.28l-2.11-.06c.07-.26.05-.13.15-.32.07-.1.11-.19.11-.29,0-.03-.03-.22-.09-.46-.05-.22-.12-.44-.14-.53-.42-1.9-1.02-3.77-1.46-5.66-.11-.47-.18-.94-.4-1.37-.19-.37-.14-.4-.64-1,.58.03.8.06,1.27.04-.02.21-.08.11-.14.28-.04.1-.05.19-.05.26,0,.12.04.24.05.35.35,1.47.75,2.95,1.09,4.44,0,0,.62,2.52.75,3h0Z" style="fill: #f59b29;"/>
  <path d="M60,17.17c.26-.76.31-1.57.53-2.34.16-.56.46-1.38.72-2.19.28-.81.49-1.57.49-2.04,0-.28-.01-.33-.19-.83.43.07.71.08,1.2.05-.3.2-.4.35-.5.59-.17.41-.22.98-.39,1.42-.05.15-.17.86-.22,1.06-.16.51-.4,1.01-.57,1.5,0,0-.39,1.52-.49,1.8-.11.31-.38,1.16-.57.98h0ZM59.09,18.9c0,.18-.12.34.1.34.19,0,1.06-.02,1.25,0,.15.15.29.3.29.3h-2.23c.25-.32.26-.4.26-.59,0-.5-.19-1-.37-1.47-.81-2.27-1.55-4.56-2.39-6.81-.09-.23-.47-.59-.65-.89.51.16.94.03,1.3.09-.12.35-.13.46-.13.67,0,.79.45,1.58.68,2.33.49,1.5,1.02,3,1.53,4.5,0,0,.38,1.31.38,1.56h0l-.02-.03Z" style="fill: #f59b29;"/>
  <path d="M67.73,14.55c0,.35.03.69.03,1.04,0,.1-.05,1.81-.05,1.92.02.06.05.96-.14,1.33-.06.12,1.29.1,1.57.1.65,0,1.32.02,1.97.02.58,0,1.15-.04,1.72-.1.39-.05.47-.31.93-.6-.22.42-.24.57-.35.86-1.16.1-1.88.16-2.91.16-.95,0-1.92.01-2.89.01h-.74c0-.25,0-.21.07-.34.07-.12.16-.23.25-.41.25-.59.16-1.44.16-2.06,0-.49-.05-.96-.05-1.43,0-1.09.12-2.16.12-3.25,0-.91.05-1.32-.45-2.11.48.02.7.07,1.05.1,0,0-.08.6-.13,1.05-.05.45-.16,3.71-.16,3.71h0ZM69.78,10.33c.43,0,2.08.03,3.18-.13.06.2.11.27.16.51-.61-.19-.72-.18-1.09-.18-.58,0-1.14.05-1.7.05-.42,0-.85,0-1.27-.03-.21-.02.29-.22.71-.22h0ZM69.84,14.33c.72,0,.65-.06,1.37-.06.28,0,.58-.03,1.09-.2-.04.25.03.44.02.58-.86-.1-1.26-.1-1.91-.1-.4,0-.83.04-1.23.06-.28.01.1-.26.67-.28h0Z" style="fill: #f59b29;"/>
  <path d="M51.11,14.4c-.24-.51-.32-1.29-.66-1.72,0,0,.09-.39.15-.41.06-.02.33.63.46,1.03s.38.95.44,1.28c.07.32.54,1.52.58,1.64-.1.04-.3,0-.37,0-.14-.23-.25-.66-.32-.91-.08-.31-.17-.63-.29-.9h.01ZM53.11,19.42c-.16.03-.5.04-.86.09.36-.4.4-.54.4-.62,0-.32-.11-.99-.38-1.19l-3.68-.05c0-.14,0-.25.16-.25s1.3-.06,1.57-.03c.26.03,1.61.04,1.78.03.17,0,.42.05.44.07.05.05.2.19.29.49.06.24.15.63.16.79.01.3,0,.47.11.68h0ZM45.77,19.44c.11-.3.22-.32.31-.46.13-.18.41-.84.48-1.03.04-.13.04-.25.05-.38.07-.32.22-.61.34-.91.22-.63.41-1.25.68-1.86.05-.12.1-.23.12-.32.03-.14.03-.29.08-.43.07-.27.21-.54.31-.81.05-.13.07-.25.12-.38.07-.19.19-.38.29-.57.24-.55.42-1.1.42-1.67,0-.25,0-.38-.19-.7.19-.13.48,0,.65,0-.05.51-.07,1.26-.26,1.74-.2.48-.41,1.15-.63,1.45-.18.25-.41,1.27-.54,1.67s-.65,1.84-.75,2.13c-.19.54-.26.95-.43,1.39-.12.32-.32.73-.26.97.04.13-.53.02-.81.16h.02Z" style="fill: #f59b29;"/>
  <path d="M12.74,11.78c0,1.28.04,2.56.04,3.85,0,.84-.05,1.69-.05,2.53,0,.31-.02.46.15.93-.47-.02-.87,0-.87,0,.25-.47.32-.89.32-1.34,0-.6.09-1.19.09-1.8,0-.19-.03-.38-.03-.57,0-.25.03-.49.03-.74,0-.81-.09-1.6-.09-2.41,0-.23.02-.49.04-.72,0-.13.03-.25.03-.38,0-.12-.03-.24-.03-.35-.07-.71-.02-.68-.21-1.16.33-.03.51.01.87.01-.17.31-.21.36-.24.86-.04.53-.04,1.07-.04,1.28h-.01Z" style="fill: #f59b29;"/>
  <path d="M5.9,10.48c.4.05,1.04.21,1.32.74.16.32.18.68.13.94-.03.15-.35.51-.4.45-.02-.03.04-.16.06-.24.06-.16.08-.32.08-.45,0-.65-.56-1.08-1.18-1.19-.41-.07-1.38-.03-1.36-.09.04-.12.87-.21,1.35-.15h0ZM4.93,14.31c-.01-.08.96-.15,1.38-.08s.69.16.89.27c.28.16.71.55.69,1.36,0,.18-.07.55-.12.7-.05.15-.21.39-.29.39-.05,0,.04-.3.06-.41.04-.19.06-.39.06-.57,0-.54-.19-.99-.56-1.26-.29-.21-.73-.3-1.22-.34-.3-.02-.91.03-.89-.07h0ZM6.73,18.89c.02.09-.39.16-.55.19-.29.05-.75.04-1.05.04-1.1,0-1.61-.05-3.09-.14.38-.49.23-.71.3-1.38.05-.64.05-1.3.05-1.6,0-.49-.02-1-.02-1.49,0-.82.09-1.63.09-2.43s-.03-1.32-.33-2.25c.4,0,.72-.02,1-.04-.05.07-.2.22-.23.46-.04.3-.01.76-.02.95,0,.2-.06,1.04-.07,1.76,0,.53.03.99.02,1.13-.03.31,0,2.41-.06,2.81-.06.41.12,1.66.06,1.76.12.01,1.76.13,2.09.15.19.01.68.09,1.11.09.39,0,.7-.05.71-.01h-.01Z" style="fill: #f59b29;"/>
  <path d="M24.02,16.94s.05-.57.09-.67c.07-.24.07-.53.07-.69-.38-.09-1.06-.09-1.47-.09-.23,0-.21,0-.64.09.06-.45.04-.46.04-.88,0-.16,0-.3-.03-.46.16.07.23.07.33.1.11.03,0,.11-.02.28s.02.58.02.63c.05,0,.24-.02.59-.03.6-.02,1.39.09,1.46.09.05,0,.02.32-.04.54-.04.18-.11.34-.14.4-.07.14-.22.68-.27.68h0Z" style="fill: #f59b29;"/>
  <path d="M21.61,10.58c0,.08.29,0,.55.06.94.21,1.13.54,1.29.77.13.19.15.26.2.51,0,.03.04.24-.02.37.26-.06.26-.11.26-.27s-.04-.63-.41-1-.9-.55-1.44-.55c-.2,0-.42.05-.43.1h0Z" style="fill: #f59b29;"/>
  <path d="M21.56,19.66c-3.46.12-4.81-2.78-4.71-5.36.04-1.09.51-2.23,1.23-3.22.25-.34.4-.43.43-.41,0,0-.18.28-.34.54-.31.54-.57,1.23-.84,2.17-.26.9-.08,2.43.12,2.97s.92,2.41,2.32,2.75c1.41.35,2.63.45,3.62-.08,1.1-.59,1.16-.72,1.27-.76.03-.01.23-.09.25-.02.07.22-.95,1.34-3.34,1.42h0Z" style="fill: #f59b29;"/>
</svg>